<svg width="339" height="327" viewBox="0 0 339 327" fill="none" xmlns="http://www.w3.org/2000/svg">
<path d="M65.0708 132.699H268.945V138.614H65.0708V132.699Z" fill="#1A1A1A"/>
<path d="M139.208 135.657H133.294V95.5774L124.395 73.0966L129.579 44.6866L107.61 24.0333L111.659 19.7247L135.976 42.581L130.517 72.4934L139.208 94.4478V135.657Z" fill="#1A1A1A"/>
<path d="M130.893 41.342L147.089 27.9191L150.866 32.4733L134.666 45.8961L130.893 41.342Z" fill="#1A1A1A"/>
<path d="M70.9259 70.1838L71.5055 64.299L127.746 69.8526L127.163 75.7375L70.9259 70.1838Z" fill="#1A1A1A"/>
<path d="M134.131 92.9426L159.356 67.0196L163.596 71.1449L138.368 97.0679L134.131 92.9426Z" fill="#1A1A1A"/>
<path d="M111.44 102.932L114.308 97.7599L137.682 110.721L134.814 115.897L111.44 102.932Z" fill="#1A1A1A"/>
<path d="M94.1548 57.6717L99.1998 54.5873L108.071 69.0866L103.026 72.1739L94.1548 57.6717Z" fill="#1A1A1A"/>
<path d="M200.976 135.657H195.061V94.4478L203.753 72.4934L198.291 42.581L222.608 19.7247L226.659 24.0333L204.687 44.6866L209.874 73.0966L200.976 95.5774V135.657Z" fill="#1A1A1A"/>
<path d="M183.398 32.4733L187.171 27.9191L203.371 41.339L199.598 45.8961L183.398 32.4733Z" fill="#1A1A1A"/>
<path d="M206.526 69.8437L262.764 64.29L263.346 70.1749L207.106 75.7286L206.526 69.8437Z" fill="#1A1A1A"/>
<path d="M170.676 71.1627L174.914 67.0403L200.139 92.9603L195.901 97.0857L170.676 71.1627Z" fill="#1A1A1A"/>
<path d="M196.59 110.689L219.964 97.7274L222.833 102.9L199.459 115.861L196.59 110.689Z" fill="#1A1A1A"/>
<path d="M226.207 69.0955L235.079 54.5963L240.124 57.6836L231.252 72.1829L226.207 69.0955Z" fill="#1A1A1A"/>
<path d="M99.9719 104.443C99.9719 104.443 89.0361 98.6559 82.3823 108.495C82.3823 108.495 92.6823 114.338 99.9719 104.443Z" fill="#3AAA54"/>
<path d="M104.378 90.3402C104.378 90.3402 95.817 81.4094 86.4071 88.6516C86.4071 88.6516 94.3443 97.4375 104.378 90.3402Z" fill="#ADE13E"/>
<path d="M82.8554 81.1374C82.8554 81.1374 70.6628 79.0437 67.401 90.4615C67.401 90.4615 79.0081 92.8095 82.8554 81.1374Z" fill="#3AAA54"/>
<path d="M67.3359 70.4381C67.3359 70.4381 55.3798 67.262 51.1096 78.3428C51.1096 78.3428 62.4594 81.7199 67.3359 70.4381Z" fill="#3AAA54"/>
<path d="M61.8946 54.194C61.8946 54.194 55.9831 43.3262 45 47.8419C45 47.8419 50.3496 58.4051 61.8946 54.194Z" fill="#3AAA54"/>
<path d="M81.019 52.2098C81.019 52.2098 75.5393 41.1173 64.3876 45.2012C64.3876 45.2012 69.3173 55.9655 81.019 52.2098Z" fill="#3AAA54"/>
<path d="M91.5054 42.3888C91.5054 42.3888 92.0643 30.0306 80.33 28.2178C80.33 28.2178 79.4458 40.026 91.5054 42.3888Z" fill="#3AAA54"/>
<path d="M116.736 56.5599C116.736 56.5599 117.295 44.2016 105.561 42.3889C105.561 42.3889 104.677 54.197 116.736 56.5599Z" fill="#3AAA54"/>
<path d="M104.878 15.0611C104.878 15.0611 106.472 2.79162 94.9296 0C94.9296 0 93.0577 11.6929 104.878 15.0611Z" fill="#ADE13E"/>
<path d="M125.28 19.2132C125.28 19.2132 131.712 8.64405 122.29 1.41364C122.29 1.41364 115.84 11.344 125.28 19.2132Z" fill="#3AAA54"/>
<path d="M135.822 31.7103C135.822 31.7103 146.199 24.9737 140.846 14.3751C140.846 14.3751 130.73 20.5261 135.822 31.7103Z" fill="#ADE13E"/>
<path d="M157.076 36.9209C157.076 36.9209 169.372 35.5488 169.337 23.6755C169.337 23.6755 157.534 24.6426 157.076 36.9209Z" fill="#3AAA54"/>
<path d="M145.164 62.2674C145.164 62.2674 157.528 61.8415 158.401 49.9979C158.401 49.9979 146.56 50.057 145.164 62.2674Z" fill="#3AAA54"/>
<path d="M188.833 62.5453C188.833 62.5453 187.999 50.2018 176.135 49.7169C176.135 49.7169 176.585 61.5487 188.833 62.5453Z" fill="#ADE13E"/>
<path d="M178.016 15.7118C178.016 15.7118 176.587 3.42159 164.714 3.51327C164.714 3.51327 165.734 15.3096 178.016 15.7118Z" fill="#3AAA54"/>
<path d="M199.376 29.9892C199.376 29.9892 202.543 18.0302 191.459 13.7689C191.459 13.7689 188.091 25.1216 199.376 29.9892Z" fill="#3AAA54"/>
<path d="M209.404 19.222C209.404 19.222 218.882 11.27 212.278 1.40173C212.278 1.40173 202.987 8.74156 209.404 19.222Z" fill="#3AAA54"/>
<path d="M229.501 15.2504C229.501 15.2504 241.395 11.8436 239.375 0.141907C239.375 0.141907 227.901 3.0666 229.501 15.2504Z" fill="#3AAA54"/>
<path d="M218.619 56.6782C218.619 56.6782 230.513 53.2714 228.493 41.5697C228.493 41.5697 217.019 44.4944 218.619 56.6782Z" fill="#3AAA54"/>
<path d="M243.894 43.1696C243.894 43.1696 255.788 39.7629 253.768 28.0612C253.768 28.0612 242.294 30.9858 243.894 43.1696Z" fill="#ADE13E"/>
<path d="M253.916 52.8662C253.916 52.8662 266.103 55.0043 269.403 43.5983C269.403 43.5983 257.805 41.2089 253.916 52.8662Z" fill="#3AAA54"/>
<path d="M273.12 53.9753C273.12 53.9753 284.736 58.2277 290 47.5847C290 47.5847 279.005 43.1873 273.12 53.9753Z" fill="#ADE13E"/>
<path d="M266.987 70.8107C266.987 70.8107 272.464 81.9033 283.615 77.8282C283.615 77.8282 278.689 67.061 266.987 70.8107Z" fill="#3AAA54"/>
<path d="M251.689 81.2468C251.689 81.2468 255.897 92.8806 267.433 90.0712C267.433 90.0712 263.737 78.8219 251.689 81.2468Z" fill="#ADE13E"/>
<path d="M228.582 89.8493C228.582 89.8493 238.394 97.3843 246.6 88.7995C246.6 88.7995 237.424 81.3147 228.582 89.8493Z" fill="#3AAA54"/>
<path d="M233.987 104.275C233.987 104.275 241.505 114.102 251.66 107.945C251.66 107.945 244.746 98.3306 233.987 104.275Z" fill="#ADE13E"/>
<path d="M178.951 93.1111C170.966 90.0533 166.107 101.377 166.107 101.377C166.107 101.377 163.33 93.392 156.387 93.738C149.443 94.084 148.867 107.625 153.61 113.294C158.353 118.963 169.337 127.527 169.337 127.527C169.337 127.527 173.051 120.468 177.91 113.294C182.768 106.12 186.935 96.1689 178.951 93.1111ZM171.194 111.088L168.148 111.478L168.313 119.992C168.322 120.483 167.935 120.888 167.444 120.897C167.438 120.897 167.432 120.897 167.426 120.897C166.944 120.897 166.548 120.513 166.539 120.028L166.376 111.706L163.319 112.096C163.279 112.102 163.242 112.104 163.206 112.102C162.766 112.102 162.384 111.774 162.328 111.328C162.266 110.843 162.609 110.396 163.097 110.334L166.344 109.92L166.258 105.561C166.249 105.07 166.637 104.665 167.128 104.656C167.133 104.656 167.139 104.656 167.145 104.656C167.627 104.656 168.024 105.041 168.032 105.526L168.112 109.692L170.969 109.329C171.454 109.266 171.9 109.609 171.963 110.097C172.025 110.582 171.682 111.029 171.194 111.091V111.088Z" fill="#FF6D8C"/>
<path d="M171.194 111.088L168.148 111.478L168.313 119.992C168.322 120.483 167.935 120.888 167.444 120.897H167.426C166.944 120.897 166.548 120.513 166.539 120.028L166.376 111.706L163.319 112.096C163.279 112.102 163.242 112.104 163.206 112.102C162.766 112.102 162.384 111.774 162.328 111.328C162.266 110.843 162.609 110.396 163.097 110.334L166.344 109.92L166.258 105.561C166.249 105.07 166.637 104.665 167.128 104.656H167.145C167.627 104.656 168.024 105.041 168.032 105.526L168.112 109.692L170.969 109.329C171.454 109.266 171.9 109.609 171.963 110.097C172.025 110.582 171.682 111.029 171.194 111.091V111.088Z" fill="white"/>
<path d="M112.067 161.716C111.408 160.509 110.503 159.59 109.349 158.957C108.196 158.326 106.85 158.011 105.313 158.011C103.611 158.011 102.101 158.395 100.782 159.164C99.4633 159.933 98.4341 161.031 97.6948 162.458C96.9536 163.886 96.5829 165.533 96.5829 167.4C96.5829 169.266 96.9585 170.996 97.7155 172.424C98.4706 173.851 99.5204 174.95 100.865 175.718C102.21 176.487 103.774 176.872 105.558 176.872C107.754 176.872 109.552 176.288 110.952 175.121C112.35 173.956 113.27 172.329 113.711 170.242H103.828V165.835H119.395V170.86C119.011 172.863 118.187 174.716 116.926 176.419C115.664 178.121 114.037 179.486 112.046 180.515C110.057 181.544 107.826 182.059 105.354 182.059C102.58 182.059 100.075 181.434 97.8397 180.184C95.6001 178.936 93.8435 177.199 92.57 174.973C91.2924 172.749 90.6537 170.224 90.6537 167.397C90.6537 164.57 91.2924 162.037 92.57 159.8C93.8475 157.562 95.6041 155.819 97.8397 154.571C100.075 153.321 102.566 152.696 105.313 152.696C108.552 152.696 111.366 153.486 113.756 155.065C116.145 156.642 117.792 158.859 118.697 161.716H112.067Z" fill="#1A1A1A"/>
<path d="M129.443 157.724V164.93H139.119V169.502H129.443V177.12H140.355V181.813H123.677V153.03H140.355V157.724H129.443Z" fill="#1A1A1A"/>
<path d="M150.094 181.071C148.487 180.385 147.217 179.396 146.285 178.105C145.35 176.815 144.87 175.291 144.845 173.533H151.022C151.103 174.714 151.522 175.647 152.279 176.333C153.034 177.019 154.07 177.362 155.387 177.362C156.703 177.362 157.788 177.04 158.557 176.395C159.326 175.749 159.711 174.905 159.711 173.864C159.711 173.014 159.449 172.314 158.927 171.764C158.405 171.214 157.753 170.782 156.972 170.466C156.19 170.151 155.112 169.801 153.74 169.416C151.873 168.866 150.356 168.324 149.189 167.79C148.022 167.256 147.019 166.445 146.181 165.359C145.344 164.275 144.925 162.827 144.925 161.015C144.925 159.313 145.35 157.831 146.202 156.567C147.054 155.305 148.247 154.337 149.783 153.663C151.321 152.991 153.078 152.655 155.053 152.655C158.018 152.655 160.427 153.375 162.281 154.817C164.134 156.256 165.156 158.267 165.347 160.849H159.007C158.952 159.862 158.533 159.044 157.75 158.398C156.967 157.753 155.931 157.431 154.642 157.431C153.514 157.431 152.615 157.719 151.945 158.294C151.273 158.872 150.937 159.709 150.937 160.805C150.937 161.574 151.191 162.212 151.7 162.718C152.206 163.227 152.838 163.639 153.595 163.954C154.35 164.27 155.414 164.633 156.786 165.046C158.651 165.596 160.175 166.145 161.358 166.693C162.539 167.243 163.554 168.066 164.404 169.162C165.255 170.26 165.681 171.701 165.681 173.485C165.681 175.023 165.283 176.451 164.487 177.768C163.69 179.086 162.523 180.136 160.985 180.917C159.447 181.7 157.622 182.091 155.508 182.091C153.503 182.091 151.699 181.748 150.094 181.062V181.071Z" fill="#1A1A1A"/>
<path d="M188.411 153.069V157.724H176.428V165.093H185.61V169.665H176.428V181.813H170.661V153.072H188.408L188.411 153.069Z" fill="#1A1A1A"/>
<path d="M212.355 166.288C211.628 167.634 210.488 168.718 208.937 169.541C207.385 170.365 205.429 170.777 203.069 170.777H198.252V181.813H192.489V153.072H203.072C205.294 153.072 207.189 153.456 208.756 154.225C210.32 154.994 211.494 156.051 212.278 157.395C213.061 158.74 213.452 160.264 213.452 161.967C213.452 163.505 213.089 164.946 212.361 166.291L212.355 166.288ZM206.364 165.031C207.133 164.303 207.517 163.281 207.517 161.964C207.517 159.165 205.953 157.765 202.824 157.765H198.252V166.125H202.824C204.417 166.125 205.598 165.761 206.367 165.034L206.364 165.031Z" fill="#1A1A1A"/>
<path d="M218.036 159.802C219.313 157.565 221.056 155.822 223.264 154.574C225.474 153.326 227.951 152.701 230.696 152.699C233.907 152.701 236.722 153.524 239.139 155.168C241.556 156.817 243.244 159.096 244.204 162.005H237.574C236.916 160.633 235.989 159.604 234.794 158.918C233.6 158.232 232.22 157.889 230.654 157.889C228.981 157.889 227.491 158.28 226.186 159.063C224.881 159.846 223.866 160.951 223.14 162.378C222.413 163.805 222.049 165.48 222.049 167.402C222.049 169.325 222.413 170.963 223.14 172.406C223.868 173.847 224.883 174.959 226.186 175.742C227.489 176.524 228.979 176.916 230.654 176.916C232.22 176.916 233.6 176.566 234.794 175.866C235.989 175.166 236.916 174.13 237.574 172.758H244.204C243.242 175.695 241.561 177.98 239.159 179.613C236.758 181.245 233.937 182.062 230.696 182.064C227.951 182.064 225.474 181.439 223.264 180.189C221.054 178.94 219.311 177.203 218.036 174.979C216.758 172.755 216.121 170.23 216.123 167.402C216.123 164.575 216.76 162.042 218.036 159.802Z" fill="#1A1A1A"/>
<path d="M9.39 261.407H33.105V265.275H9.39V261.407ZM7.3925 249.252H35.3575V267.485H31.065V253.12H11.515V267.528H7.3925V249.252ZM25.285 234.632L28.43 232.55C29.7617 233.74 31.1642 235.086 32.6375 236.587C34.1108 238.061 35.4708 239.534 36.7175 241.007C37.9925 242.481 38.9983 243.812 39.735 245.002L36.2925 247.51C35.6125 246.292 34.6633 244.932 33.445 243.43C32.2267 241.928 30.895 240.412 29.45 238.882C28.0333 237.352 26.645 235.936 25.285 234.632ZM5.5225 246.022C5.46583 245.739 5.3525 245.357 5.1825 244.875C5.04083 244.393 4.885 243.897 4.715 243.387C4.545 242.877 4.375 242.452 4.205 242.112C4.74333 241.999 5.28167 241.73 5.82 241.305C6.35833 240.852 6.98167 240.285 7.69 239.605C8.08667 239.265 8.65333 238.698 9.39 237.905C10.1267 237.112 10.9483 236.177 11.855 235.1C12.7617 234.023 13.6825 232.847 14.6175 231.572C15.5525 230.297 16.4167 229.022 17.21 227.747L21.2475 229.49C19.9442 231.332 18.5417 233.131 17.04 234.887C15.5667 236.616 14.065 238.245 12.535 239.775C11.0333 241.305 9.53167 242.679 8.03 243.897V244.025C8.03 244.025 7.9025 244.096 7.6475 244.237C7.3925 244.351 7.095 244.521 6.755 244.747C6.415 244.946 6.1175 245.158 5.8625 245.385C5.63583 245.612 5.5225 245.824 5.5225 246.022ZM5.5225 246.022L5.48 242.877L8.3275 241.39L35.0175 240.327C35.0458 240.866 35.1025 241.489 35.1875 242.197C35.2725 242.906 35.3575 243.472 35.4425 243.897C31.2492 244.124 27.6367 244.322 24.605 244.492C21.5733 244.634 19.0092 244.762 16.9125 244.875C14.8442 244.988 13.13 245.102 11.77 245.215C10.4383 245.3 9.36167 245.385 8.54 245.47C7.74667 245.527 7.12333 245.597 6.67 245.682C6.245 245.767 5.8625 245.881 5.5225 246.022ZM70.25 235.95H78.24V237.99H70.25V235.95ZM70.25 239.18H78.24V241.177H70.25V239.18ZM64.045 258.73H85.5925V261.322H64.045V258.73ZM69.0175 232.38H79.2175V234.632H69.0175V232.38ZM72.6725 244.535V246.957H75.69V244.535H72.6725ZM70.165 242.58H78.2825V248.912H70.165V242.58ZM64.7675 254.522H82.405V252.695H62.1325V250.272H86.145V256.945H64.7675V254.522ZM63.5775 254.522H67.3175C67.0342 255.712 66.7225 256.917 66.3825 258.135C66.0708 259.325 65.7733 260.387 65.49 261.322H61.7075C62.0475 260.359 62.3733 259.268 62.685 258.05C63.025 256.803 63.3225 255.627 63.5775 254.522ZM84.3175 258.73H88.1C88.1 258.73 88.0858 258.928 88.0575 259.325C88.0292 259.693 87.9725 260.005 87.8875 260.26C87.4908 262.017 87.08 263.391 86.655 264.383C86.23 265.403 85.7342 266.139 85.1675 266.593C84.6858 266.933 84.1617 267.159 83.595 267.273C83.0567 267.414 82.405 267.499 81.64 267.528C80.9883 267.556 80.0533 267.556 78.835 267.528C77.645 267.528 76.37 267.499 75.01 267.443C74.9817 266.989 74.8683 266.479 74.67 265.913C74.4717 265.346 74.2308 264.836 73.9475 264.383C75.2792 264.524 76.5683 264.609 77.815 264.638C79.0617 264.666 79.94 264.68 80.45 264.68C80.9033 264.68 81.2717 264.666 81.555 264.638C81.8383 264.609 82.0792 264.524 82.2775 264.383C82.6742 264.071 83.0283 263.518 83.34 262.725C83.68 261.903 84.0058 260.713 84.3175 259.155V258.73ZM51.21 231.317L53.5475 228.682C54.2558 229.051 54.9925 229.504 55.7575 230.042C56.5508 230.552 57.2875 231.077 57.9675 231.615C58.6475 232.125 59.2 232.621 59.625 233.102L57.2025 236.077C56.8058 235.596 56.2675 235.072 55.5875 234.505C54.9358 233.938 54.2275 233.386 53.4625 232.847C52.6975 232.281 51.9467 231.771 51.21 231.317ZM50.3175 242.665L52.5275 239.902C53.2642 240.242 54.0292 240.667 54.8225 241.177C55.6442 241.659 56.395 242.155 57.075 242.665C57.7833 243.147 58.3642 243.614 58.8175 244.067L56.48 247.127C56.055 246.674 55.4883 246.178 54.78 245.64C54.1 245.102 53.3633 244.577 52.57 244.067C51.7767 243.529 51.0258 243.062 50.3175 242.665ZM51.1675 265.02C51.7058 263.887 52.2725 262.569 52.8675 261.067C53.4908 259.566 54.1142 257.979 54.7375 256.307C55.3892 254.636 55.9842 252.992 56.5225 251.377L59.71 253.417C59.2567 254.919 58.7467 256.463 58.18 258.05C57.6133 259.637 57.0467 261.195 56.48 262.725C55.9133 264.255 55.3467 265.7 54.78 267.06L51.1675 265.02ZM65.8725 237.99L67.6575 237.352C68.0825 238.032 68.4792 238.783 68.8475 239.605C69.2442 240.427 69.5133 241.121 69.655 241.687L67.785 242.495C67.6433 241.9 67.3883 241.177 67.02 240.327C66.68 239.477 66.2975 238.698 65.8725 237.99ZM66.2125 243.557L67.955 242.92C68.295 243.628 68.5925 244.407 68.8475 245.257C69.1308 246.107 69.315 246.83 69.4 247.425L67.53 248.232C67.4733 247.609 67.3033 246.858 67.02 245.98C66.765 245.102 66.4958 244.294 66.2125 243.557ZM60.135 243.685L62.2175 244.237C62.0475 245.257 61.8067 246.292 61.495 247.34C61.1833 248.388 60.8292 249.295 60.4325 250.06C60.2058 249.862 59.9083 249.635 59.54 249.38C59.1717 249.125 58.8458 248.927 58.5625 248.785C58.9875 248.048 59.3133 247.241 59.54 246.362C59.7667 245.484 59.965 244.592 60.135 243.685ZM59.88 236.715C59.8233 236.517 59.71 236.233 59.54 235.865C59.37 235.468 59.2142 235.142 59.0725 234.887C59.3275 234.831 59.5542 234.717 59.7525 234.547C59.9508 234.349 60.1633 234.094 60.39 233.782C60.5317 233.584 60.7725 233.216 61.1125 232.677C61.4525 232.111 61.7925 231.459 62.1325 230.722C62.5008 229.957 62.7842 229.192 62.9825 228.427L65.3625 229.277C64.8808 230.439 64.2717 231.587 63.535 232.72C62.8267 233.853 62.09 234.831 61.325 235.652V235.695C61.325 235.695 61.1975 235.752 60.9425 235.865C60.7158 235.978 60.475 236.12 60.22 236.29C59.9933 236.432 59.88 236.573 59.88 236.715ZM59.88 236.715L59.8375 234.887L61.2825 234.207L66.085 233.952C66 234.264 65.9292 234.618 65.8725 235.015C65.8158 235.412 65.7875 235.737 65.7875 235.992C64.3708 236.077 63.2658 236.162 62.4725 236.247C61.6792 236.332 61.0983 236.417 60.73 236.502C60.3617 236.559 60.0783 236.63 59.88 236.715ZM60.0075 242.452C59.9508 242.282 59.8375 241.999 59.6675 241.602C59.4975 241.206 59.3275 240.88 59.1575 240.625C59.5258 240.568 59.8658 240.412 60.1775 240.157C60.4892 239.902 60.8292 239.562 61.1975 239.137C61.4808 238.882 61.9058 238.387 62.4725 237.65C63.0675 236.913 63.6908 236.049 64.3425 235.057C65.0225 234.066 65.6175 233.06 66.1275 232.04L68.3375 233.06C67.4308 234.562 66.3967 236.049 65.235 237.522C64.0733 238.996 62.8833 240.271 61.665 241.347V241.432C61.665 241.432 61.5233 241.489 61.24 241.602C60.9567 241.716 60.6733 241.857 60.39 242.027C60.135 242.169 60.0075 242.311 60.0075 242.452ZM60.0075 242.452L59.8375 240.625L61.1975 239.902L67.7425 239.137C67.7708 239.421 67.8275 239.761 67.9125 240.157C68.0258 240.526 68.125 240.823 68.21 241.05C66.085 241.333 64.47 241.574 63.365 241.772C62.26 241.942 61.4808 242.084 61.0275 242.197C60.5742 242.282 60.2342 242.367 60.0075 242.452ZM62.94 244.152L64.8525 243.685C65.1075 244.478 65.32 245.342 65.49 246.277C65.6883 247.184 65.8017 247.963 65.83 248.615L63.8325 249.252C63.8042 248.572 63.705 247.765 63.535 246.83C63.3933 245.867 63.195 244.974 62.94 244.152ZM71.78 229.107L74.5 228.512C74.8117 229.022 75.1233 229.603 75.435 230.255C75.775 230.878 76.03 231.417 76.2 231.87L73.395 232.635C73.2533 232.125 73.0267 231.544 72.715 230.892C72.4033 230.241 72.0917 229.646 71.78 229.107ZM85.8475 237.947L87.59 237.31C88.0433 238.018 88.4683 238.812 88.865 239.69C89.29 240.54 89.5733 241.248 89.715 241.815L87.8875 242.622C87.7175 241.999 87.4342 241.248 87.0375 240.37C86.6408 239.492 86.2442 238.684 85.8475 237.947ZM86.145 243.515L87.8875 242.835C88.2842 243.685 88.6383 244.606 88.95 245.597C89.29 246.589 89.5167 247.439 89.63 248.147L87.76 248.997C87.675 248.261 87.4767 247.382 87.165 246.362C86.8533 245.314 86.5133 244.365 86.145 243.515ZM80.0675 243.557L82.1925 244.067C82.0225 245.087 81.7817 246.122 81.47 247.17C81.1583 248.218 80.8042 249.125 80.4075 249.89C80.1808 249.692 79.8833 249.465 79.515 249.21C79.1467 248.955 78.835 248.742 78.58 248.572C78.9767 247.864 79.2883 247.071 79.515 246.192C79.7417 245.314 79.9258 244.436 80.0675 243.557ZM79.8975 236.672C79.8125 236.474 79.685 236.177 79.515 235.78C79.345 235.383 79.1892 235.072 79.0475 234.845C79.3025 234.788 79.5292 234.675 79.7275 234.505C79.9258 234.307 80.1242 234.052 80.3225 233.74C80.4925 233.542 80.7333 233.159 81.045 232.592C81.385 232.026 81.7392 231.374 82.1075 230.637C82.4758 229.901 82.7733 229.15 83 228.385L85.3375 229.235C84.8558 230.368 84.2467 231.502 83.51 232.635C82.8017 233.768 82.065 234.76 81.3 235.61V235.652C81.3 235.652 81.1867 235.709 80.96 235.822C80.7333 235.936 80.4925 236.077 80.2375 236.247C80.0108 236.389 79.8975 236.531 79.8975 236.672ZM79.8975 236.672L79.8125 234.887L81.2575 234.165L86.06 233.91C85.975 234.222 85.9042 234.576 85.8475 234.972C85.7908 235.341 85.7625 235.667 85.7625 235.95C84.3175 236.035 83.1983 236.12 82.405 236.205C81.6117 236.29 81.0308 236.375 80.6625 236.46C80.3225 236.517 80.0675 236.587 79.8975 236.672ZM79.9825 242.41C79.9258 242.212 79.8125 241.914 79.6425 241.517C79.4725 241.121 79.3025 240.809 79.1325 240.583C79.5008 240.526 79.8408 240.37 80.1525 240.115C80.4642 239.86 80.8042 239.52 81.1725 239.095C81.4558 238.812 81.8808 238.316 82.4475 237.607C83.0425 236.871 83.6658 236.007 84.3175 235.015C84.9975 234.023 85.5783 233.017 86.06 231.997L88.3125 233.017C87.4058 234.519 86.3717 236.007 85.21 237.48C84.0483 238.925 82.8442 240.2 81.5975 241.305V241.39C81.5975 241.39 81.47 241.447 81.215 241.56C80.96 241.673 80.6908 241.815 80.4075 241.985C80.1242 242.127 79.9825 242.268 79.9825 242.41ZM79.9825 242.41L79.855 240.54L81.1725 239.817L87.76 239.095C87.7883 239.378 87.845 239.718 87.93 240.115C88.0433 240.483 88.1283 240.781 88.185 241.007C86.06 241.291 84.445 241.517 83.34 241.687C82.2633 241.857 81.4842 241.999 81.0025 242.112C80.5492 242.226 80.2092 242.325 79.9825 242.41ZM82.83 244.11L84.7425 243.642C85.0258 244.521 85.2667 245.47 85.465 246.49C85.6633 247.482 85.7625 248.317 85.7625 248.997L83.765 249.677C83.765 248.969 83.68 248.091 83.51 247.042C83.34 245.994 83.1133 245.017 82.83 244.11ZM108.203 232.932V248.19H130.133V232.932H108.203ZM104.165 229.575H134.425V251.547H104.165V229.575ZM117.51 241.432L119.635 239.435C120.57 239.973 121.562 240.597 122.61 241.305C123.687 242.013 124.707 242.722 125.67 243.43C126.633 244.11 127.427 244.719 128.05 245.257L125.798 247.595C125.174 247.028 124.395 246.391 123.46 245.682C122.525 244.946 121.533 244.209 120.485 243.472C119.437 242.736 118.445 242.056 117.51 241.432ZM110.243 236.672H127.965V239.647H110.243V236.672ZM117.468 233.697H120.868C120.669 235.964 120.287 237.99 119.72 239.775C119.153 241.532 118.218 243.062 116.915 244.365C115.64 245.64 113.798 246.688 111.39 247.51C111.22 247.142 110.951 246.717 110.583 246.235C110.243 245.725 109.903 245.328 109.563 245.045C111.631 244.365 113.203 243.501 114.28 242.452C115.357 241.404 116.108 240.143 116.533 238.67C116.986 237.197 117.298 235.539 117.468 233.697ZM109.818 254.012H113.855V261.662C113.855 262.286 114.025 262.697 114.365 262.895C114.705 263.065 115.456 263.15 116.618 263.15C116.816 263.15 117.156 263.15 117.638 263.15C118.119 263.15 118.658 263.15 119.253 263.15C119.876 263.15 120.499 263.15 121.123 263.15C121.746 263.15 122.313 263.15 122.823 263.15C123.361 263.15 123.772 263.15 124.055 263.15C124.707 263.15 125.203 263.022 125.543 262.767C125.883 262.512 126.123 262.002 126.265 261.237C126.407 260.444 126.52 259.254 126.605 257.667C126.888 257.894 127.243 258.121 127.668 258.347C128.121 258.546 128.574 258.716 129.028 258.857C129.509 258.999 129.934 259.127 130.303 259.24C130.133 261.252 129.849 262.81 129.453 263.915C129.084 265.02 128.489 265.771 127.668 266.168C126.874 266.593 125.755 266.805 124.31 266.805C124.112 266.805 123.729 266.805 123.163 266.805C122.624 266.805 122.001 266.805 121.292 266.805C120.613 266.805 119.918 266.805 119.21 266.805C118.502 266.805 117.878 266.805 117.34 266.805C116.802 266.805 116.433 266.805 116.235 266.805C114.535 266.805 113.218 266.649 112.283 266.338C111.348 266.054 110.696 265.53 110.328 264.765C109.988 264.028 109.818 263.008 109.818 261.705V254.012ZM115.98 253.587L119.253 251.93C119.961 252.582 120.669 253.318 121.378 254.14C122.086 254.933 122.723 255.741 123.29 256.562C123.885 257.356 124.353 258.078 124.693 258.73L121.208 260.557C120.924 259.906 120.499 259.183 119.933 258.39C119.366 257.568 118.743 256.732 118.063 255.882C117.383 255.032 116.688 254.267 115.98 253.587ZM128.603 254.862L132.045 253.205C132.895 254.197 133.745 255.273 134.595 256.435C135.445 257.568 136.21 258.702 136.89 259.835C137.57 260.968 138.08 262.017 138.42 262.98L134.723 264.765C134.411 263.858 133.929 262.824 133.278 261.662C132.654 260.501 131.932 259.325 131.11 258.135C130.317 256.945 129.481 255.854 128.603 254.862ZM104.463 254.055L107.99 255.415C107.622 256.52 107.197 257.696 106.715 258.942C106.262 260.161 105.738 261.337 105.143 262.47C104.576 263.603 103.938 264.609 103.23 265.488L99.66 263.49C100.368 262.668 101.02 261.733 101.615 260.685C102.238 259.637 102.791 258.532 103.273 257.37C103.754 256.208 104.151 255.103 104.463 254.055ZM171.485 260.43L174.333 257.795C175.863 258.503 177.393 259.268 178.923 260.09C180.481 260.912 181.94 261.719 183.3 262.512C184.688 263.306 185.878 264.043 186.87 264.723L183.215 267.4C182.308 266.748 181.218 266.012 179.943 265.19C178.668 264.397 177.308 263.589 175.863 262.767C174.418 261.917 172.958 261.138 171.485 260.43ZM148.28 253.842H187.72V257.667H148.28V253.842ZM154.528 243.217H181.43V246.957H154.528V243.217ZM161.54 228.002H165.28V255.585H161.54V228.002ZM170.593 228.002H174.46V255.627H170.593V228.002ZM152.53 233.145H183.81V255.33H179.773V236.885H156.44V255.33H152.53V233.145ZM160.945 257.88L164.685 260.26C163.58 261.167 162.291 262.073 160.818 262.98C159.344 263.887 157.8 264.737 156.185 265.53C154.598 266.323 153.083 267.003 151.638 267.57C151.269 267.145 150.773 266.649 150.15 266.083C149.555 265.516 149.017 265.048 148.535 264.68C150.037 264.142 151.567 263.49 153.125 262.725C154.712 261.96 156.185 261.152 157.545 260.302C158.933 259.452 160.067 258.645 160.945 257.88ZM223.675 230.17H231.58V233.655H223.675V230.17ZM213.985 231.955H222.4V235.312H213.985V231.955ZM224.1 238.287H231.41V241.602H224.1V238.287ZM223.845 246.192H231.028V249.55H223.845V246.192ZM202.808 238.16H210.033V241.517H202.808V238.16ZM203.063 246.022H210.16V249.38H203.063V246.022ZM229.328 230.17H233.025C232.997 232.21 232.968 234.377 232.94 236.672C232.912 238.939 232.869 241.206 232.813 243.472C232.756 245.739 232.685 247.907 232.6 249.975C232.515 252.015 232.416 253.814 232.303 255.372H228.52C228.633 253.786 228.747 251.958 228.86 249.89C228.973 247.822 229.058 245.654 229.115 243.387C229.2 241.092 229.257 238.812 229.285 236.545C229.313 234.278 229.328 232.153 229.328 230.17ZM208.843 228.342L210.67 231.615C209.282 232.153 207.794 232.663 206.208 233.145C204.649 233.598 203.176 234.023 201.788 234.42C201.731 234.023 201.603 233.556 201.405 233.017C201.207 232.451 201.008 231.969 200.81 231.572C202.17 231.119 203.587 230.609 205.06 230.042C206.533 229.447 207.794 228.881 208.843 228.342ZM212.03 228.427H215.473V239.222H220.743V242.41H212.03V228.427ZM197.495 253.927H236.34V257.667H197.495V253.927ZM220.658 260.472L222.868 257.667C224.369 258.347 225.885 259.084 227.415 259.877C228.945 260.671 230.39 261.45 231.75 262.215C233.11 262.98 234.272 263.688 235.235 264.34L232.6 267.4C231.693 266.72 230.574 265.983 229.243 265.19C227.939 264.397 226.551 263.589 225.078 262.767C223.604 261.946 222.131 261.181 220.658 260.472ZM209.82 257.88L213.135 260.387C211.945 261.266 210.599 262.144 209.098 263.022C207.624 263.872 206.108 264.68 204.55 265.445C203.02 266.238 201.561 266.933 200.173 267.528C199.889 267.103 199.521 266.593 199.068 265.998C198.642 265.403 198.232 264.893 197.835 264.468C199.195 263.958 200.626 263.334 202.128 262.598C203.629 261.832 205.06 261.039 206.42 260.217C207.78 259.396 208.913 258.617 209.82 257.88ZM200.81 231.572L204.508 232.592L205.23 255.117H201.618L200.81 231.572ZM213.05 243.897L216.153 244.45C215.954 245.867 215.657 247.269 215.26 248.657C214.863 250.017 214.339 251.179 213.688 252.142C213.404 251.916 212.979 251.632 212.413 251.292C211.874 250.952 211.421 250.697 211.053 250.527C211.676 249.621 212.129 248.601 212.413 247.467C212.696 246.306 212.908 245.116 213.05 243.897ZM218.66 239.265H222.06V250.357C222.06 251.094 221.975 251.661 221.805 252.057C221.635 252.426 221.281 252.737 220.743 252.992C220.233 253.191 219.581 253.318 218.788 253.375C218.023 253.403 217.116 253.417 216.068 253.417C216.011 253.021 215.883 252.582 215.685 252.1C215.515 251.618 215.331 251.193 215.133 250.825C215.813 250.853 216.436 250.882 217.003 250.91C217.569 250.91 217.952 250.896 218.15 250.867C218.348 250.867 218.476 250.839 218.533 250.782C218.618 250.697 218.66 250.556 218.66 250.357V239.265ZM260.735 237.99H285.513V241.347H260.735V237.99ZM269.533 249.337H274.973V252.44H269.533V249.337ZM262.393 231.232H273.57V234.42H262.393V231.232ZM279.35 230.85L282.07 229.617C282.807 230.439 283.529 231.374 284.238 232.422C284.974 233.471 285.498 234.392 285.81 235.185L282.92 236.63C282.608 235.808 282.113 234.859 281.433 233.782C280.781 232.706 280.087 231.728 279.35 230.85ZM268.045 242.197H271.19V262.172H268.045V242.197ZM262.35 245.385H265.41V263.15H262.35V245.385ZM259.715 262.64C261.047 262.413 262.577 262.13 264.305 261.79C266.033 261.45 267.875 261.082 269.83 260.685C271.813 260.288 273.797 259.892 275.78 259.495L276.12 262.64C273.485 263.263 270.85 263.872 268.215 264.468C265.58 265.091 263.214 265.643 261.118 266.125L259.715 262.64ZM249.812 257.412L253.425 258.262C252.915 260.019 252.221 261.747 251.343 263.447C250.493 265.119 249.586 266.522 248.623 267.655C248.396 267.428 248.084 267.188 247.688 266.933C247.319 266.678 246.937 266.423 246.54 266.168C246.172 265.913 245.846 265.714 245.563 265.573C246.526 264.553 247.376 263.32 248.113 261.875C248.849 260.43 249.416 258.942 249.812 257.412ZM254.828 258.645L257.718 257.497C258.341 258.461 258.936 259.537 259.503 260.727C260.069 261.889 260.494 262.895 260.778 263.745L257.718 265.105C257.463 264.227 257.052 263.178 256.485 261.96C255.947 260.713 255.394 259.608 254.828 258.645ZM251.215 240.837V245.64H256.358V240.837H251.215ZM251.215 248.7V253.587H256.358V248.7H251.215ZM251.215 232.975V237.777H256.358V232.975H251.215ZM247.858 229.702H259.843V256.817H247.858V229.702ZM275.228 228.3H278.925C278.897 231.983 278.925 235.525 279.01 238.925C279.095 242.297 279.223 245.427 279.393 248.317C279.591 251.179 279.832 253.687 280.115 255.84C280.398 257.993 280.724 259.665 281.093 260.855C281.461 262.045 281.872 262.64 282.325 262.64C282.608 262.64 282.863 262.116 283.09 261.067C283.317 260.019 283.473 258.574 283.558 256.732C283.784 257.016 284.068 257.313 284.408 257.625C284.748 257.908 285.088 258.177 285.428 258.432C285.796 258.659 286.079 258.843 286.278 258.985C285.966 261.252 285.583 263.008 285.13 264.255C284.677 265.502 284.181 266.352 283.643 266.805C283.133 267.258 282.637 267.485 282.155 267.485C281.022 267.457 280.058 266.819 279.265 265.573C278.472 264.326 277.82 262.541 277.31 260.217C276.828 257.894 276.446 255.117 276.163 251.887C275.879 248.657 275.667 245.059 275.525 241.092C275.383 237.126 275.284 232.862 275.228 228.3ZM309.398 243.345H313.18V263.575C313.18 264.482 313.067 265.19 312.84 265.7C312.613 266.21 312.203 266.607 311.608 266.89C310.956 267.145 310.148 267.301 309.185 267.358C308.25 267.414 307.131 267.443 305.828 267.443C305.743 266.961 305.573 266.408 305.318 265.785C305.063 265.19 304.808 264.666 304.553 264.213C305.459 264.241 306.295 264.255 307.06 264.255C307.853 264.283 308.392 264.283 308.675 264.255C308.958 264.255 309.143 264.198 309.228 264.085C309.341 264 309.398 263.83 309.398 263.575V243.345ZM299.622 243.345H311.438V246.745H299.622V243.345ZM316.75 248.062H320.703V262.002C320.703 262.711 320.844 263.178 321.128 263.405C321.411 263.603 322.02 263.702 322.955 263.702C323.153 263.702 323.522 263.702 324.06 263.702C324.598 263.702 325.193 263.702 325.845 263.702C326.525 263.702 327.148 263.702 327.715 263.702C328.282 263.702 328.707 263.702 328.99 263.702C329.557 263.702 329.982 263.589 330.265 263.362C330.548 263.107 330.747 262.612 330.86 261.875C330.973 261.138 331.058 260.062 331.115 258.645C331.568 258.928 332.135 259.212 332.815 259.495C333.523 259.778 334.147 259.977 334.685 260.09C334.543 261.96 334.288 263.405 333.92 264.425C333.58 265.473 333.042 266.196 332.305 266.593C331.597 267.018 330.619 267.23 329.373 267.23C329.174 267.23 328.834 267.23 328.353 267.23C327.899 267.23 327.375 267.23 326.78 267.23C326.185 267.23 325.59 267.23 324.995 267.23C324.4 267.23 323.862 267.23 323.38 267.23C322.927 267.23 322.615 267.23 322.445 267.23C320.943 267.23 319.768 267.074 318.918 266.763C318.096 266.451 317.529 265.913 317.218 265.148C316.906 264.411 316.75 263.362 316.75 262.002V248.062ZM307.315 232.422L310.63 231.232C311.282 232.224 311.948 233.315 312.628 234.505C313.308 235.667 313.945 236.8 314.54 237.905C315.135 239.01 315.617 240.002 315.985 240.88L312.5 242.367C312.188 241.489 311.749 240.483 311.183 239.35C310.616 238.188 309.993 237.012 309.313 235.822C308.633 234.604 307.967 233.471 307.315 232.422ZM319.173 233.697H331.795V237.182H319.173V233.697ZM319.173 252.78H332.178V256.35H319.173V252.78ZM297.285 241.22C297.2 240.965 297.087 240.611 296.945 240.157C296.803 239.704 296.648 239.237 296.478 238.755C296.308 238.273 296.152 237.877 296.01 237.565C296.35 237.48 296.704 237.282 297.073 236.97C297.441 236.658 297.838 236.276 298.263 235.822C298.574 235.511 299.028 234.972 299.622 234.207C300.246 233.414 300.912 232.493 301.62 231.445C302.357 230.368 302.994 229.263 303.533 228.13L307.613 229.362C306.876 230.609 306.054 231.842 305.148 233.06C304.241 234.25 303.306 235.383 302.343 236.46C301.408 237.508 300.501 238.429 299.622 239.222V239.307C299.622 239.307 299.495 239.378 299.24 239.52C299.013 239.633 298.744 239.789 298.433 239.988C298.121 240.186 297.852 240.398 297.625 240.625C297.398 240.852 297.285 241.05 297.285 241.22ZM297.285 241.22L297.158 238.287L299.155 237.097L312.415 236.12C312.5 236.63 312.613 237.197 312.755 237.82C312.897 238.415 313.038 238.925 313.18 239.35C309.922 239.633 307.301 239.874 305.318 240.072C303.363 240.271 301.847 240.441 300.77 240.583C299.693 240.696 298.914 240.809 298.433 240.922C297.951 241.007 297.568 241.107 297.285 241.22ZM297.71 243.345H301.45V253.46C301.45 254.905 301.365 256.492 301.195 258.22C301.025 259.92 300.685 261.606 300.175 263.277C299.693 264.921 298.943 266.394 297.923 267.698C297.753 267.414 297.498 267.088 297.158 266.72C296.818 266.38 296.463 266.04 296.095 265.7C295.727 265.36 295.401 265.105 295.118 264.935C295.911 263.83 296.492 262.626 296.86 261.322C297.228 259.991 297.455 258.645 297.54 257.285C297.653 255.897 297.71 254.593 297.71 253.375V243.345ZM300.77 259.027C302.017 258.461 303.49 257.752 305.19 256.902C306.918 256.052 308.675 255.16 310.46 254.225L311.268 256.732C309.681 257.724 308.094 258.716 306.508 259.707C304.949 260.699 303.476 261.62 302.088 262.47L300.77 259.027ZM301.45 250.527L303.533 248.615C304.213 249.04 304.935 249.522 305.7 250.06C306.465 250.598 307.202 251.122 307.91 251.632C308.618 252.114 309.185 252.553 309.61 252.95L307.485 255.117C307.032 254.692 306.465 254.211 305.785 253.672C305.105 253.134 304.383 252.596 303.618 252.057C302.853 251.491 302.13 250.981 301.45 250.527ZM316.75 228.172H320.703V241.135C320.703 241.928 320.816 242.481 321.043 242.792C321.269 243.104 321.723 243.26 322.403 243.26C322.686 243.26 323.153 243.26 323.805 243.26C324.457 243.26 325.165 243.26 325.93 243.26C326.695 243.26 327.418 243.26 328.098 243.26C328.778 243.26 329.259 243.26 329.543 243.26C330.109 243.26 330.761 243.232 331.498 243.175C332.263 243.118 332.858 243.047 333.283 242.962C333.339 243.501 333.396 244.096 333.453 244.747C333.509 245.399 333.58 245.952 333.665 246.405C333.268 246.518 332.688 246.603 331.923 246.66C331.186 246.688 330.435 246.702 329.67 246.702C329.415 246.702 329.018 246.702 328.48 246.702C327.97 246.702 327.403 246.702 326.78 246.702C326.157 246.702 325.533 246.702 324.91 246.702C324.315 246.702 323.777 246.702 323.295 246.702C322.813 246.702 322.473 246.702 322.275 246.702C320.83 246.702 319.711 246.518 318.918 246.15C318.124 245.782 317.558 245.187 317.218 244.365C316.906 243.543 316.75 242.438 316.75 241.05V228.172ZM96.43 298.837H105.143V301.982H96.43V298.837ZM93.2425 311.205H107.608V314.01H93.2425V311.205ZM79.175 287.787H90.99V290.975H79.175V287.787ZM89.885 287.787H90.565L91.245 287.617L93.7525 288.85C92.7042 291.287 91.2875 293.44 89.5025 295.31C87.7175 297.18 85.72 298.795 83.51 300.155C81.3 301.487 79.0192 302.577 76.6675 303.427C76.4125 302.974 76.0725 302.45 75.6475 301.855C75.2508 301.26 74.8683 300.792 74.5 300.452C76.115 299.971 77.7017 299.347 79.26 298.583C80.8183 297.789 82.2917 296.882 83.68 295.862C85.0683 294.814 86.3008 293.667 87.3775 292.42C88.4542 291.145 89.29 289.813 89.885 288.425V287.787ZM97.62 286.257C98.6117 288.411 99.9433 290.38 101.615 292.165C103.287 293.95 105.228 295.508 107.438 296.84C109.648 298.143 112.056 299.135 114.663 299.815C114.266 300.183 113.827 300.679 113.345 301.302C112.892 301.926 112.523 302.478 112.24 302.96C109.52 302.11 107.013 300.934 104.718 299.432C102.451 297.931 100.439 296.16 98.6825 294.12C96.9542 292.052 95.5233 289.757 94.39 287.235L97.62 286.257ZM105.27 286.385L108.245 288.467C107.225 289.374 106.134 290.281 104.973 291.187C103.811 292.094 102.748 292.873 101.785 293.525L99.4475 291.697C100.071 291.244 100.737 290.706 101.445 290.082C102.182 289.459 102.89 288.836 103.57 288.212C104.25 287.561 104.817 286.952 105.27 286.385ZM110.54 290.677L113.473 292.717C112.481 293.652 111.39 294.573 110.2 295.48C109.01 296.358 107.905 297.109 106.885 297.732L104.463 295.905C105.114 295.452 105.808 294.927 106.545 294.332C107.31 293.709 108.047 293.086 108.755 292.462C109.463 291.811 110.058 291.216 110.54 290.677ZM81.0025 299.05H91.33V309.037H87.76V302.152H81.0025V299.05ZM79.685 305.977H82.9575C82.7592 307.621 82.5183 309.349 82.235 311.162C81.98 312.976 81.725 314.52 81.47 315.795H78.1125C78.3108 314.917 78.495 313.925 78.665 312.82C78.8633 311.687 79.0475 310.525 79.2175 309.335C79.4158 308.145 79.5717 307.026 79.685 305.977ZM87.7175 312.82H91.3725C91.3725 312.82 91.3583 313.004 91.33 313.372C91.33 313.741 91.3158 314.038 91.2875 314.265C91.1458 316.22 90.9758 317.849 90.7775 319.152C90.5792 320.427 90.3525 321.433 90.0975 322.17C89.8708 322.935 89.5733 323.502 89.205 323.87C88.78 324.267 88.3267 324.55 87.845 324.72C87.3917 324.918 86.8108 325.032 86.1025 325.06C85.5358 325.117 84.7425 325.145 83.7225 325.145C82.7025 325.145 81.6117 325.117 80.45 325.06C80.4217 324.522 80.2942 323.927 80.0675 323.275C79.8692 322.652 79.6142 322.099 79.3025 321.617C80.4075 321.731 81.4558 321.802 82.4475 321.83C83.4675 321.858 84.19 321.872 84.615 321.872C84.9833 321.872 85.295 321.858 85.55 321.83C85.805 321.773 86.0175 321.66 86.1875 321.49C86.5275 321.178 86.825 320.399 87.08 319.152C87.335 317.906 87.5475 315.951 87.7175 313.287V312.82ZM94.9425 298.837H98.3425V302.11C98.3425 303.102 98.215 304.122 97.96 305.17C97.705 306.19 97.2375 307.182 96.5575 308.145C95.9058 309.08 94.9425 309.93 93.6675 310.695C93.5258 310.468 93.285 310.199 92.945 309.887C92.6333 309.547 92.3075 309.222 91.9675 308.91C91.6558 308.598 91.3725 308.357 91.1175 308.187C92.2508 307.564 93.0867 306.912 93.625 306.232C94.1633 305.552 94.5175 304.858 94.6875 304.15C94.8575 303.413 94.9425 302.705 94.9425 302.025V298.837ZM106.758 311.205H107.48L108.118 311.12L110.37 311.927C109.407 314.506 108.061 316.702 106.333 318.515C104.604 320.3 102.593 321.759 100.298 322.893C98.0025 324.054 95.5092 324.961 92.8175 325.613C92.6475 325.188 92.3925 324.678 92.0525 324.083C91.7408 323.488 91.415 323.02 91.075 322.68C93.455 322.198 95.6933 321.49 97.79 320.555C99.8867 319.592 101.714 318.373 103.273 316.9C104.859 315.427 106.021 313.698 106.758 311.715V311.205ZM81.13 305.977H89.035V309.037H80.5775L81.13 305.977ZM79.8975 312.82H88.7375V315.795H79.345L79.8975 312.82ZM77.9 293.567L80.195 291.4C81.13 291.91 82.1217 292.533 83.17 293.27C84.2183 293.978 85.0258 294.616 85.5925 295.182L83.17 297.562C82.6317 296.967 81.8525 296.302 80.8325 295.565C79.8408 294.8 78.8633 294.134 77.9 293.567ZM103.358 298.88H106.673V305.425C106.673 305.935 106.715 306.289 106.8 306.487C106.885 306.657 107.069 306.742 107.353 306.742C107.523 306.742 107.792 306.742 108.16 306.742C108.528 306.742 108.897 306.742 109.265 306.742C109.633 306.742 109.903 306.742 110.073 306.742C110.356 306.742 110.71 306.728 111.135 306.7C111.56 306.672 111.9 306.629 112.155 306.572C112.183 306.969 112.212 307.437 112.24 307.975C112.297 308.485 112.353 308.938 112.41 309.335C112.155 309.42 111.815 309.477 111.39 309.505C110.965 309.533 110.54 309.547 110.115 309.547C109.973 309.547 109.747 309.547 109.435 309.547C109.152 309.547 108.84 309.547 108.5 309.547C108.188 309.547 107.891 309.547 107.608 309.547C107.324 309.547 107.112 309.547 106.97 309.547C105.978 309.547 105.213 309.406 104.675 309.122C104.165 308.839 103.811 308.4 103.613 307.805C103.443 307.182 103.358 306.374 103.358 305.382V298.88ZM92.945 316.092L94.8575 313.84C96.1325 314.52 97.4925 315.257 98.9375 316.05C100.383 316.843 101.828 317.665 103.273 318.515C104.718 319.337 106.078 320.144 107.353 320.937C108.628 321.702 109.718 322.397 110.625 323.02L108.543 325.655C107.693 325.032 106.644 324.309 105.398 323.488C104.151 322.694 102.805 321.872 101.36 321.022C99.9433 320.144 98.4983 319.294 97.025 318.472C95.58 317.622 94.22 316.829 92.945 316.092ZM133.32 302.365H161.03V305.765H133.32V302.365ZM132.258 309.547H162.815V312.99H132.258V309.547ZM139.27 298.667H142.968V311.332H139.27V298.667ZM150.533 298.667H154.315V311.247H150.533V298.667ZM128.093 288.085H132.13V300.622C132.13 302.436 132.073 304.433 131.96 306.615C131.847 308.768 131.62 310.978 131.28 313.245C130.94 315.512 130.43 317.707 129.75 319.832C129.07 321.957 128.163 323.898 127.03 325.655C126.775 325.428 126.421 325.173 125.968 324.89C125.543 324.635 125.103 324.38 124.65 324.125C124.197 323.898 123.8 323.714 123.46 323.573C124.537 321.929 125.373 320.13 125.968 318.175C126.591 316.22 127.044 314.222 127.328 312.182C127.639 310.114 127.838 308.102 127.922 306.147C128.036 304.164 128.093 302.322 128.093 300.622V288.085ZM130.515 288.085H160.393V298.625H130.515V295.182H156.355V291.527H130.515V288.085ZM148.153 310.865C149.343 313.812 151.213 316.262 153.763 318.217C156.341 320.144 159.528 321.49 163.325 322.255C162.9 322.652 162.461 323.176 162.008 323.828C161.554 324.479 161.186 325.06 160.903 325.57C156.879 324.578 153.536 322.907 150.873 320.555C148.238 318.203 146.226 315.228 144.838 311.63L148.153 310.865ZM157.885 312.862L160.903 314.987C159.741 315.837 158.466 316.673 157.078 317.495C155.689 318.288 154.428 318.968 153.295 319.535L150.703 317.58C151.468 317.183 152.289 316.716 153.168 316.177C154.046 315.639 154.896 315.087 155.718 314.52C156.539 313.925 157.262 313.372 157.885 312.862ZM135.828 325.698L135.7 322.68L137.273 321.405L148.493 319.067C148.408 319.577 148.337 320.158 148.28 320.81C148.223 321.462 148.209 321.986 148.238 322.383C145.716 322.978 143.676 323.459 142.118 323.828C140.588 324.224 139.398 324.522 138.548 324.72C137.726 324.947 137.117 325.131 136.72 325.273C136.352 325.414 136.054 325.556 135.828 325.698ZM135.828 325.698C135.771 325.386 135.643 325.018 135.445 324.593C135.275 324.196 135.091 323.785 134.893 323.36C134.694 322.963 134.496 322.652 134.298 322.425C134.723 322.17 135.176 321.759 135.658 321.192C136.168 320.597 136.423 319.804 136.423 318.812V311.12L140.163 311.247V321.575C140.163 321.575 140.021 321.674 139.738 321.872C139.454 322.043 139.086 322.283 138.633 322.595C138.208 322.907 137.783 323.247 137.358 323.615C136.933 323.983 136.564 324.352 136.253 324.72C135.969 325.088 135.828 325.414 135.828 325.698ZM198.218 308.4H209.395V311.502H198.218V308.4ZM188.06 290.55H207.143V293.822H188.06V290.55ZM184.023 308.4H195.03V311.502H184.023V308.4ZM172.718 297.137H186.275V300.792H172.718V297.137ZM177.69 286.13H181.558V325.57H177.69V286.13ZM193.925 308.4H197.198C197.198 308.4 197.198 308.584 197.198 308.952C197.198 309.292 197.183 309.576 197.155 309.802C197.07 313.032 196.971 315.639 196.858 317.622C196.744 319.577 196.588 321.065 196.39 322.085C196.22 323.105 195.993 323.813 195.71 324.21C195.398 324.635 195.073 324.933 194.733 325.103C194.393 325.301 193.982 325.414 193.5 325.443C193.103 325.528 192.622 325.57 192.055 325.57C191.488 325.57 190.865 325.57 190.185 325.57C190.185 325.088 190.114 324.536 189.973 323.913C189.831 323.318 189.633 322.808 189.378 322.383C189.944 322.439 190.44 322.468 190.865 322.468C191.29 322.496 191.63 322.51 191.885 322.51C192.112 322.51 192.296 322.482 192.438 322.425C192.608 322.368 192.749 322.241 192.863 322.043C193.061 321.787 193.217 321.221 193.33 320.342C193.472 319.464 193.585 318.118 193.67 316.305C193.783 314.463 193.868 312.027 193.925 308.995V308.4ZM208.248 308.4H211.605C211.605 308.4 211.605 308.584 211.605 308.952C211.605 309.292 211.605 309.59 211.605 309.845C211.52 313.047 211.407 315.639 211.265 317.622C211.152 319.577 211.01 321.065 210.84 322.085C210.67 323.105 210.429 323.813 210.118 324.21C209.834 324.607 209.508 324.89 209.14 325.06C208.772 325.258 208.347 325.386 207.865 325.443C207.468 325.528 206.958 325.57 206.335 325.57C205.712 325.57 205.046 325.57 204.338 325.57C204.309 325.06 204.21 324.493 204.04 323.87C203.898 323.247 203.714 322.723 203.488 322.298C204.083 322.354 204.607 322.383 205.06 322.383C205.542 322.411 205.91 322.425 206.165 322.425C206.42 322.425 206.618 322.383 206.76 322.298C206.93 322.241 207.086 322.128 207.228 321.957C207.398 321.702 207.539 321.136 207.653 320.257C207.794 319.379 207.908 318.033 207.993 316.22C208.078 314.407 208.163 311.998 208.248 308.995V308.4ZM206.42 290.55H210.118C210.118 290.55 210.103 290.734 210.075 291.102C210.047 291.471 210.018 291.782 209.99 292.037C209.82 294.106 209.636 295.82 209.438 297.18C209.239 298.512 209.013 299.56 208.758 300.325C208.531 301.062 208.233 301.628 207.865 302.025C207.497 302.422 207.086 302.705 206.633 302.875C206.208 303.045 205.698 303.144 205.103 303.172C204.649 303.229 203.998 303.272 203.148 303.3C202.326 303.3 201.448 303.272 200.513 303.215C200.484 302.677 200.371 302.096 200.173 301.472C200.003 300.849 199.762 300.297 199.45 299.815C200.328 299.9 201.136 299.957 201.873 299.985C202.638 300.013 203.176 300.027 203.488 300.027C203.828 300.027 204.097 300.013 204.295 299.985C204.493 299.928 204.678 299.815 204.848 299.645C205.188 299.305 205.485 298.497 205.74 297.222C205.995 295.947 206.222 293.893 206.42 291.06V290.55ZM196.433 286.13H200.215C200.045 288.312 199.748 290.323 199.323 292.165C198.898 293.978 198.246 295.636 197.368 297.137C196.518 298.611 195.356 299.928 193.883 301.09C192.409 302.223 190.553 303.215 188.315 304.065C188.145 303.64 187.848 303.158 187.423 302.62C187.026 302.053 186.643 301.6 186.275 301.26C188.315 300.552 189.973 299.73 191.248 298.795C192.523 297.832 193.514 296.727 194.223 295.48C194.959 294.205 195.483 292.788 195.795 291.23C196.107 289.672 196.319 287.972 196.433 286.13ZM188.103 304.192H191.545C191.488 307.337 191.276 310.256 190.908 312.947C190.539 315.611 189.888 318.019 188.953 320.172C188.046 322.298 186.728 324.139 185 325.698C184.773 325.301 184.448 324.848 184.023 324.338C183.598 323.856 183.187 323.473 182.79 323.19C184.292 321.858 185.411 320.257 186.148 318.387C186.913 316.489 187.408 314.35 187.635 311.97C187.89 309.59 188.046 306.997 188.103 304.192ZM202.128 304.065H205.655C205.57 307.267 205.329 310.213 204.933 312.905C204.564 315.568 203.898 317.962 202.935 320.087C202 322.184 200.626 323.998 198.813 325.528C198.586 325.103 198.246 324.635 197.793 324.125C197.368 323.643 196.957 323.261 196.56 322.978C198.147 321.674 199.323 320.102 200.088 318.26C200.853 316.418 201.363 314.307 201.618 311.927C201.901 309.519 202.071 306.898 202.128 304.065ZM230.178 300.962V306.912H252.278V300.962H230.178ZM226.778 298.37H255.848V309.505H226.778V298.37ZM233.875 293.78H248.835V296.5H233.875V293.78ZM239.485 299.262H242.8V308.187H239.485V299.262ZM232.303 302.11L235.108 301.217C235.589 301.954 236.028 302.762 236.425 303.64C236.85 304.518 237.133 305.283 237.275 305.935L234.3 306.955C234.158 306.275 233.903 305.482 233.535 304.575C233.167 303.668 232.756 302.847 232.303 302.11ZM247.05 301.047L250.45 301.982C249.968 302.889 249.487 303.796 249.005 304.702C248.552 305.581 248.127 306.332 247.73 306.955L244.968 306.062C245.308 305.382 245.69 304.561 246.115 303.597C246.54 302.634 246.852 301.784 247.05 301.047ZM229.243 311.247H253.765V325.4H249.643V313.967H233.195V325.57H229.243V311.247ZM231.538 316.347H251.343V319.067H231.538V316.347ZM231.538 321.49H251.385V324.253H231.538V321.49ZM240.76 285.875L244.33 287.15C242.8 289.133 240.93 290.918 238.72 292.505C236.51 294.092 234.116 295.494 231.538 296.712C228.959 297.902 226.324 298.908 223.633 299.73C223.491 299.475 223.293 299.149 223.038 298.752C222.783 298.356 222.513 297.959 222.23 297.562C221.947 297.166 221.678 296.854 221.423 296.627C224.029 295.947 226.565 295.097 229.03 294.077C231.495 293.029 233.733 291.825 235.745 290.465C237.785 289.077 239.457 287.547 240.76 285.875ZM243.268 287.532C244.231 288.496 245.393 289.431 246.753 290.337C248.141 291.216 249.643 292.037 251.258 292.802C252.901 293.567 254.601 294.247 256.358 294.842C258.143 295.437 259.899 295.933 261.628 296.33C261.203 296.67 260.735 297.152 260.225 297.775C259.743 298.398 259.361 298.951 259.078 299.432C257.349 298.951 255.593 298.356 253.808 297.647C252.023 296.911 250.294 296.089 248.623 295.182C246.979 294.247 245.435 293.242 243.99 292.165C242.573 291.088 241.313 289.969 240.208 288.807L243.268 287.532Z" fill="#565656"/>
</svg>
