<svg width="607" height="174" viewBox="0 0 607 174" fill="none" xmlns="http://www.w3.org/2000/svg">
<path d="M284.156 72.438H307.592V76.26H284.156V72.438ZM282.182 60.426H309.818V78.444H305.576V64.248H286.256V78.486H282.182V60.426ZM299.864 45.978L302.972 43.92C304.288 45.096 305.674 46.426 307.13 47.91C308.586 49.366 309.93 50.822 311.162 52.278C312.422 53.734 313.416 55.05 314.144 56.226L310.742 58.704C310.07 57.5 309.132 56.156 307.928 54.672C306.724 53.188 305.408 51.69 303.98 50.178C302.58 48.666 301.208 47.266 299.864 45.978ZM280.334 57.234C280.278 56.954 280.166 56.576 279.998 56.1C279.858 55.624 279.704 55.134 279.536 54.63C279.368 54.126 279.2 53.706 279.032 53.37C279.564 53.258 280.096 52.992 280.628 52.572C281.16 52.124 281.776 51.564 282.476 50.892C282.868 50.556 283.428 49.996 284.156 49.212C284.884 48.428 285.696 47.504 286.592 46.44C287.488 45.376 288.398 44.214 289.322 42.954C290.246 41.694 291.1 40.434 291.884 39.174L295.874 40.896C294.586 42.716 293.2 44.494 291.716 46.23C290.26 47.938 288.776 49.548 287.264 51.06C285.78 52.572 284.296 53.93 282.812 55.134V55.26C282.812 55.26 282.686 55.33 282.434 55.47C282.182 55.582 281.888 55.75 281.552 55.974C281.216 56.17 280.922 56.38 280.67 56.604C280.446 56.828 280.334 57.038 280.334 57.234ZM280.334 57.234L280.292 54.126L283.106 52.656L309.482 51.606C309.51 52.138 309.566 52.754 309.65 53.454C309.734 54.154 309.818 54.714 309.902 55.134C305.758 55.358 302.188 55.554 299.192 55.722C296.196 55.862 293.662 55.988 291.59 56.1C289.546 56.212 287.852 56.324 286.508 56.436C285.192 56.52 284.128 56.604 283.316 56.688C282.532 56.744 281.916 56.814 281.468 56.898C281.048 56.982 280.67 57.094 280.334 57.234ZM344.3 47.28H352.196V49.296H344.3V47.28ZM344.3 50.472H352.196V52.446H344.3V50.472ZM338.168 69.792H359.462V72.354H338.168V69.792ZM343.082 43.752H353.162V45.978H343.082V43.752ZM346.694 55.764V58.158H349.676V55.764H346.694ZM344.216 53.832H352.238V60.09H344.216V53.832ZM338.882 65.634H356.312V63.828H336.278V61.434H360.008V68.028H338.882V65.634ZM337.706 65.634H341.402C341.122 66.81 340.814 68 340.478 69.204C340.17 70.38 339.876 71.43 339.596 72.354H335.858C336.194 71.402 336.516 70.324 336.824 69.12C337.16 67.888 337.454 66.726 337.706 65.634ZM358.202 69.792H361.94C361.94 69.792 361.926 69.988 361.898 70.38C361.87 70.744 361.814 71.052 361.73 71.304C361.338 73.04 360.932 74.398 360.512 75.378C360.092 76.386 359.602 77.114 359.042 77.562C358.566 77.898 358.048 78.122 357.488 78.234C356.956 78.374 356.312 78.458 355.556 78.486C354.912 78.514 353.988 78.514 352.784 78.486C351.608 78.486 350.348 78.458 349.004 78.402C348.976 77.954 348.864 77.45 348.668 76.89C348.472 76.33 348.234 75.826 347.954 75.378C349.27 75.518 350.544 75.602 351.776 75.63C353.008 75.658 353.876 75.672 354.38 75.672C354.828 75.672 355.192 75.658 355.472 75.63C355.752 75.602 355.99 75.518 356.186 75.378C356.578 75.07 356.928 74.524 357.236 73.74C357.572 72.928 357.894 71.752 358.202 70.212V69.792ZM325.484 42.702L327.794 40.098C328.494 40.462 329.222 40.91 329.978 41.442C330.762 41.946 331.49 42.464 332.162 42.996C332.834 43.5 333.38 43.99 333.8 44.466L331.406 47.406C331.014 46.93 330.482 46.412 329.81 45.852C329.166 45.292 328.466 44.746 327.71 44.214C326.954 43.654 326.212 43.15 325.484 42.702ZM324.602 53.916L326.786 51.186C327.514 51.522 328.27 51.942 329.054 52.446C329.866 52.922 330.608 53.412 331.28 53.916C331.98 54.392 332.554 54.854 333.002 55.302L330.692 58.326C330.272 57.878 329.712 57.388 329.012 56.856C328.34 56.324 327.612 55.806 326.828 55.302C326.044 54.77 325.302 54.308 324.602 53.916ZM325.442 76.008C325.974 74.888 326.534 73.586 327.122 72.102C327.738 70.618 328.354 69.05 328.97 67.398C329.614 65.746 330.202 64.122 330.734 62.526L333.884 64.542C333.436 66.026 332.932 67.552 332.372 69.12C331.812 70.688 331.252 72.228 330.692 73.74C330.132 75.252 329.572 76.68 329.012 78.024L325.442 76.008ZM339.974 49.296L341.738 48.666C342.158 49.338 342.55 50.08 342.914 50.892C343.306 51.704 343.572 52.39 343.712 52.95L341.864 53.748C341.724 53.16 341.472 52.446 341.108 51.606C340.772 50.766 340.394 49.996 339.974 49.296ZM340.31 54.798L342.032 54.168C342.368 54.868 342.662 55.638 342.914 56.478C343.194 57.318 343.376 58.032 343.46 58.62L341.612 59.418C341.556 58.802 341.388 58.06 341.108 57.192C340.856 56.324 340.59 55.526 340.31 54.798ZM334.304 54.924L336.362 55.47C336.194 56.478 335.956 57.5 335.648 58.536C335.34 59.572 334.99 60.468 334.598 61.224C334.374 61.028 334.08 60.804 333.716 60.552C333.352 60.3 333.03 60.104 332.75 59.964C333.17 59.236 333.492 58.438 333.716 57.57C333.94 56.702 334.136 55.82 334.304 54.924ZM334.052 48.036C333.996 47.84 333.884 47.56 333.716 47.196C333.548 46.804 333.394 46.482 333.254 46.23C333.506 46.174 333.73 46.062 333.926 45.894C334.122 45.698 334.332 45.446 334.556 45.138C334.696 44.942 334.934 44.578 335.27 44.046C335.606 43.486 335.942 42.842 336.278 42.114C336.642 41.358 336.922 40.602 337.118 39.846L339.47 40.686C338.994 41.834 338.392 42.968 337.664 44.088C336.964 45.208 336.236 46.174 335.48 46.986V47.028C335.48 47.028 335.354 47.084 335.102 47.196C334.878 47.308 334.64 47.448 334.388 47.616C334.164 47.756 334.052 47.896 334.052 48.036ZM334.052 48.036L334.01 46.23L335.438 45.558L340.184 45.306C340.1 45.614 340.03 45.964 339.974 46.356C339.918 46.748 339.89 47.07 339.89 47.322C338.49 47.406 337.398 47.49 336.614 47.574C335.83 47.658 335.256 47.742 334.892 47.826C334.528 47.882 334.248 47.952 334.052 48.036ZM334.178 53.706C334.122 53.538 334.01 53.258 333.842 52.866C333.674 52.474 333.506 52.152 333.338 51.9C333.702 51.844 334.038 51.69 334.346 51.438C334.654 51.186 334.99 50.85 335.354 50.43C335.634 50.178 336.054 49.688 336.614 48.96C337.202 48.232 337.818 47.378 338.462 46.398C339.134 45.418 339.722 44.424 340.226 43.416L342.41 44.424C341.514 45.908 340.492 47.378 339.344 48.834C338.196 50.29 337.02 51.55 335.816 52.614V52.698C335.816 52.698 335.676 52.754 335.396 52.866C335.116 52.978 334.836 53.118 334.556 53.286C334.304 53.426 334.178 53.566 334.178 53.706ZM334.178 53.706L334.01 51.9L335.354 51.186L341.822 50.43C341.85 50.71 341.906 51.046 341.99 51.438C342.102 51.802 342.2 52.096 342.284 52.32C340.184 52.6 338.588 52.838 337.496 53.034C336.404 53.202 335.634 53.342 335.186 53.454C334.738 53.538 334.402 53.622 334.178 53.706ZM337.076 55.386L338.966 54.924C339.218 55.708 339.428 56.562 339.596 57.486C339.792 58.382 339.904 59.152 339.932 59.796L337.958 60.426C337.93 59.754 337.832 58.956 337.664 58.032C337.524 57.08 337.328 56.198 337.076 55.386ZM345.812 40.518L348.5 39.93C348.808 40.434 349.116 41.008 349.424 41.652C349.76 42.268 350.012 42.8 350.18 43.248L347.408 44.004C347.268 43.5 347.044 42.926 346.736 42.282C346.428 41.638 346.12 41.05 345.812 40.518ZM359.714 49.254L361.436 48.624C361.884 49.324 362.304 50.108 362.696 50.976C363.116 51.816 363.396 52.516 363.536 53.076L361.73 53.874C361.562 53.258 361.282 52.516 360.89 51.648C360.498 50.78 360.106 49.982 359.714 49.254ZM360.008 54.756L361.73 54.084C362.122 54.924 362.472 55.834 362.78 56.814C363.116 57.794 363.34 58.634 363.452 59.334L361.604 60.174C361.52 59.446 361.324 58.578 361.016 57.57C360.708 56.534 360.372 55.596 360.008 54.756ZM354.002 54.798L356.102 55.302C355.934 56.31 355.696 57.332 355.388 58.368C355.08 59.404 354.73 60.3 354.338 61.056C354.114 60.86 353.82 60.636 353.456 60.384C353.092 60.132 352.784 59.922 352.532 59.754C352.924 59.054 353.232 58.27 353.456 57.402C353.68 56.534 353.862 55.666 354.002 54.798ZM353.834 47.994C353.75 47.798 353.624 47.504 353.456 47.112C353.288 46.72 353.134 46.412 352.994 46.188C353.246 46.132 353.47 46.02 353.666 45.852C353.862 45.656 354.058 45.404 354.254 45.096C354.422 44.9 354.66 44.522 354.968 43.962C355.304 43.402 355.654 42.758 356.018 42.03C356.382 41.302 356.676 40.56 356.9 39.804L359.21 40.644C358.734 41.764 358.132 42.884 357.404 44.004C356.704 45.124 355.976 46.104 355.22 46.944V46.986C355.22 46.986 355.108 47.042 354.884 47.154C354.66 47.266 354.422 47.406 354.17 47.574C353.946 47.714 353.834 47.854 353.834 47.994ZM353.834 47.994L353.75 46.23L355.178 45.516L359.924 45.264C359.84 45.572 359.77 45.922 359.714 46.314C359.658 46.678 359.63 47 359.63 47.28C358.202 47.364 357.096 47.448 356.312 47.532C355.528 47.616 354.954 47.7 354.59 47.784C354.254 47.84 354.002 47.91 353.834 47.994ZM353.918 53.664C353.862 53.468 353.75 53.174 353.582 52.782C353.414 52.39 353.246 52.082 353.078 51.858C353.442 51.802 353.778 51.648 354.086 51.396C354.394 51.144 354.73 50.808 355.094 50.388C355.374 50.108 355.794 49.618 356.354 48.918C356.942 48.19 357.558 47.336 358.202 46.356C358.874 45.376 359.448 44.382 359.924 43.374L362.15 44.382C361.254 45.866 360.232 47.336 359.084 48.792C357.936 50.22 356.746 51.48 355.514 52.572V52.656C355.514 52.656 355.388 52.712 355.136 52.824C354.884 52.936 354.618 53.076 354.338 53.244C354.058 53.384 353.918 53.524 353.918 53.664ZM353.918 53.664L353.792 51.816L355.094 51.102L361.604 50.388C361.632 50.668 361.688 51.004 361.772 51.396C361.884 51.76 361.968 52.054 362.024 52.278C359.924 52.558 358.328 52.782 357.236 52.95C356.172 53.118 355.402 53.258 354.926 53.37C354.478 53.482 354.142 53.58 353.918 53.664ZM356.732 55.344L358.622 54.882C358.902 55.75 359.14 56.688 359.336 57.696C359.532 58.676 359.63 59.502 359.63 60.174L357.656 60.846C357.656 60.146 357.572 59.278 357.404 58.242C357.236 57.206 357.012 56.24 356.732 55.344ZM381.806 44.298V59.376H403.478V44.298H381.806ZM377.816 40.98H407.72V62.694H377.816V40.98ZM391.004 52.698L393.104 50.724C394.028 51.256 395.008 51.872 396.044 52.572C397.108 53.272 398.116 53.972 399.068 54.672C400.02 55.344 400.804 55.946 401.42 56.478L399.194 58.788C398.578 58.228 397.808 57.598 396.884 56.898C395.96 56.17 394.98 55.442 393.944 54.714C392.908 53.986 391.928 53.314 391.004 52.698ZM383.822 47.994H401.336V50.934H383.822V47.994ZM390.962 45.054H394.322C394.126 47.294 393.748 49.296 393.188 51.06C392.628 52.796 391.704 54.308 390.416 55.596C389.156 56.856 387.336 57.892 384.956 58.704C384.788 58.34 384.522 57.92 384.158 57.444C383.822 56.94 383.486 56.548 383.15 56.268C385.194 55.596 386.748 54.742 387.812 53.706C388.876 52.67 389.618 51.424 390.038 49.968C390.486 48.512 390.794 46.874 390.962 45.054ZM383.402 65.13H387.392V72.69C387.392 73.306 387.56 73.712 387.896 73.908C388.232 74.076 388.974 74.16 390.122 74.16C390.318 74.16 390.654 74.16 391.13 74.16C391.606 74.16 392.138 74.16 392.726 74.16C393.342 74.16 393.958 74.16 394.574 74.16C395.19 74.16 395.75 74.16 396.254 74.16C396.786 74.16 397.192 74.16 397.472 74.16C398.116 74.16 398.606 74.034 398.942 73.782C399.278 73.53 399.516 73.026 399.656 72.27C399.796 71.486 399.908 70.31 399.992 68.742C400.272 68.966 400.622 69.19 401.042 69.414C401.49 69.61 401.938 69.778 402.386 69.918C402.862 70.058 403.282 70.184 403.646 70.296C403.478 72.284 403.198 73.824 402.806 74.916C402.442 76.008 401.854 76.75 401.042 77.142C400.258 77.562 399.152 77.772 397.724 77.772C397.528 77.772 397.15 77.772 396.59 77.772C396.058 77.772 395.442 77.772 394.742 77.772C394.07 77.772 393.384 77.772 392.684 77.772C391.984 77.772 391.368 77.772 390.836 77.772C390.304 77.772 389.94 77.772 389.744 77.772C388.064 77.772 386.762 77.618 385.838 77.31C384.914 77.03 384.27 76.512 383.906 75.756C383.57 75.028 383.402 74.02 383.402 72.732V65.13ZM389.492 64.71L392.726 63.072C393.426 63.716 394.126 64.444 394.826 65.256C395.526 66.04 396.156 66.838 396.716 67.65C397.304 68.434 397.766 69.148 398.102 69.792L394.658 71.598C394.378 70.954 393.958 70.24 393.398 69.456C392.838 68.644 392.222 67.818 391.55 66.978C390.878 66.138 390.192 65.382 389.492 64.71ZM401.966 65.97L405.368 64.332C406.208 65.312 407.048 66.376 407.888 67.524C408.728 68.644 409.484 69.764 410.156 70.884C410.828 72.004 411.332 73.04 411.668 73.992L408.014 75.756C407.706 74.86 407.23 73.838 406.586 72.69C405.97 71.542 405.256 70.38 404.444 69.204C403.66 68.028 402.834 66.95 401.966 65.97ZM378.11 65.172L381.596 66.516C381.232 67.608 380.812 68.77 380.336 70.002C379.888 71.206 379.37 72.368 378.782 73.488C378.222 74.608 377.592 75.602 376.892 76.47L373.364 74.496C374.064 73.684 374.708 72.76 375.296 71.724C375.912 70.688 376.458 69.596 376.934 68.448C377.41 67.3 377.802 66.208 378.11 65.172ZM444.344 71.472L447.158 68.868C448.67 69.568 450.182 70.324 451.694 71.136C453.234 71.948 454.676 72.746 456.02 73.53C457.392 74.314 458.568 75.042 459.548 75.714L455.936 78.36C455.04 77.716 453.962 76.988 452.702 76.176C451.442 75.392 450.098 74.594 448.67 73.782C447.242 72.942 445.8 72.172 444.344 71.472ZM421.412 64.962H460.388V68.742H421.412V64.962ZM427.586 54.462H454.172V58.158H427.586V54.462ZM434.516 39.426H438.212V66.684H434.516V39.426ZM443.462 39.426H447.284V66.726H443.462V39.426ZM425.612 44.508H456.524V66.432H452.534V48.204H429.476V66.432H425.612V44.508ZM433.928 68.952L437.624 71.304C436.532 72.2 435.258 73.096 433.802 73.992C432.346 74.888 430.82 75.728 429.224 76.512C427.656 77.296 426.158 77.968 424.73 78.528C424.366 78.108 423.876 77.618 423.26 77.058C422.672 76.498 422.14 76.036 421.664 75.672C423.148 75.14 424.66 74.496 426.2 73.74C427.768 72.984 429.224 72.186 430.568 71.346C431.94 70.506 433.06 69.708 433.928 68.952ZM495.92 41.568H503.732V45.012H495.92V41.568ZM486.344 43.332H494.66V46.65H486.344V43.332ZM496.34 49.59H503.564V52.866H496.34V49.59ZM496.088 57.402H503.186V60.72H496.088V57.402ZM475.298 49.464H482.438V52.782H475.298V49.464ZM475.55 57.234H482.564V60.552H475.55V57.234ZM501.506 41.568H505.16C505.132 43.584 505.104 45.726 505.076 47.994C505.048 50.234 505.006 52.474 504.95 54.714C504.894 56.954 504.824 59.096 504.74 61.14C504.656 63.156 504.558 64.934 504.446 66.474H500.708C500.82 64.906 500.932 63.1 501.044 61.056C501.156 59.012 501.24 56.87 501.296 54.63C501.38 52.362 501.436 50.108 501.464 47.868C501.492 45.628 501.506 43.528 501.506 41.568ZM481.262 39.762L483.068 42.996C481.696 43.528 480.226 44.032 478.658 44.508C477.118 44.956 475.662 45.376 474.29 45.768C474.234 45.376 474.108 44.914 473.912 44.382C473.716 43.822 473.52 43.346 473.324 42.954C474.668 42.506 476.068 42.002 477.524 41.442C478.98 40.854 480.226 40.294 481.262 39.762ZM484.412 39.846H487.814V50.514H493.022V53.664H484.412V39.846ZM470.048 65.046H508.436V68.742H470.048V65.046ZM492.938 71.514L495.122 68.742C496.606 69.414 498.104 70.142 499.616 70.926C501.128 71.71 502.556 72.48 503.9 73.236C505.244 73.992 506.392 74.692 507.344 75.336L504.74 78.36C503.844 77.688 502.738 76.96 501.422 76.176C500.134 75.392 498.762 74.594 497.306 73.782C495.85 72.97 494.394 72.214 492.938 71.514ZM482.228 68.952L485.504 71.43C484.328 72.298 482.998 73.166 481.514 74.034C480.058 74.874 478.56 75.672 477.02 76.428C475.508 77.212 474.066 77.898 472.694 78.486C472.414 78.066 472.05 77.562 471.602 76.974C471.182 76.386 470.776 75.882 470.384 75.462C471.728 74.958 473.142 74.342 474.626 73.614C476.11 72.858 477.524 72.074 478.868 71.262C480.212 70.45 481.332 69.68 482.228 68.952ZM473.324 42.954L476.978 43.962L477.692 66.222H474.122L473.324 42.954ZM485.42 55.134L488.486 55.68C488.29 57.08 487.996 58.466 487.604 59.838C487.212 61.182 486.694 62.33 486.05 63.282C485.77 63.058 485.35 62.778 484.79 62.442C484.258 62.106 483.81 61.854 483.446 61.686C484.062 60.79 484.51 59.782 484.79 58.662C485.07 57.514 485.28 56.338 485.42 55.134ZM490.964 50.556H494.324V61.518C494.324 62.246 494.24 62.806 494.072 63.198C493.904 63.562 493.554 63.87 493.022 64.122C492.518 64.318 491.874 64.444 491.09 64.5C490.334 64.528 489.438 64.542 488.402 64.542C488.346 64.15 488.22 63.716 488.024 63.24C487.856 62.764 487.674 62.344 487.478 61.98C488.15 62.008 488.766 62.036 489.326 62.064C489.886 62.064 490.264 62.05 490.46 62.022C490.656 62.022 490.782 61.994 490.838 61.938C490.922 61.854 490.964 61.714 490.964 61.518V50.556ZM532.544 49.296H557.03V52.614H532.544V49.296ZM541.238 60.51H546.614V63.576H541.238V60.51ZM534.182 42.618H545.228V45.768H534.182V42.618ZM550.94 42.24L553.628 41.022C554.356 41.834 555.07 42.758 555.77 43.794C556.498 44.83 557.016 45.74 557.324 46.524L554.468 47.952C554.16 47.14 553.67 46.202 552.998 45.138C552.354 44.074 551.668 43.108 550.94 42.24ZM539.768 53.454H542.876V73.194H539.768V53.454ZM534.14 56.604H537.164V74.16H534.14V56.604ZM531.536 73.656C532.852 73.432 534.364 73.152 536.072 72.816C537.78 72.48 539.6 72.116 541.532 71.724C543.492 71.332 545.452 70.94 547.412 70.548L547.748 73.656C545.144 74.272 542.54 74.874 539.936 75.462C537.332 76.078 534.994 76.624 532.922 77.1L531.536 73.656ZM521.75 68.49L525.32 69.33C524.816 71.066 524.13 72.774 523.262 74.454C522.422 76.106 521.526 77.492 520.574 78.612C520.35 78.388 520.042 78.15 519.65 77.898C519.286 77.646 518.908 77.394 518.516 77.142C518.152 76.89 517.83 76.694 517.55 76.554C518.502 75.546 519.342 74.328 520.07 72.9C520.798 71.472 521.358 70.002 521.75 68.49ZM526.706 69.708L529.562 68.574C530.178 69.526 530.766 70.59 531.326 71.766C531.886 72.914 532.306 73.908 532.586 74.748L529.562 76.092C529.31 75.224 528.904 74.188 528.344 72.984C527.812 71.752 527.266 70.66 526.706 69.708ZM523.136 52.11V56.856H528.218V52.11H523.136ZM523.136 59.88V64.71H528.218V59.88H523.136ZM523.136 44.34V49.086H528.218V44.34H523.136ZM519.818 41.106H531.662V67.902H519.818V41.106ZM546.866 39.72H550.52C550.492 43.36 550.52 46.86 550.604 50.22C550.688 53.552 550.814 56.646 550.982 59.502C551.178 62.33 551.416 64.808 551.696 66.936C551.976 69.064 552.298 70.716 552.662 71.892C553.026 73.068 553.432 73.656 553.88 73.656C554.16 73.656 554.412 73.138 554.636 72.102C554.86 71.066 555.014 69.638 555.098 67.818C555.322 68.098 555.602 68.392 555.938 68.7C556.274 68.98 556.61 69.246 556.946 69.498C557.31 69.722 557.59 69.904 557.786 70.044C557.478 72.284 557.1 74.02 556.652 75.252C556.204 76.484 555.714 77.324 555.182 77.772C554.678 78.22 554.188 78.444 553.712 78.444C552.592 78.416 551.64 77.786 550.856 76.554C550.072 75.322 549.428 73.558 548.924 71.262C548.448 68.966 548.07 66.222 547.79 63.03C547.51 59.838 547.3 56.282 547.16 52.362C547.02 48.442 546.922 44.228 546.866 39.72ZM580.634 54.588H584.372V74.58C584.372 75.476 584.26 76.176 584.036 76.68C583.812 77.184 583.406 77.576 582.818 77.856C582.174 78.108 581.376 78.262 580.424 78.318C579.5 78.374 578.394 78.402 577.106 78.402C577.022 77.926 576.854 77.38 576.602 76.764C576.35 76.176 576.098 75.658 575.846 75.21C576.742 75.238 577.568 75.252 578.324 75.252C579.108 75.28 579.64 75.28 579.92 75.252C580.2 75.252 580.382 75.196 580.466 75.084C580.578 75 580.634 74.832 580.634 74.58V54.588ZM570.974 54.588H582.65V57.948H570.974V54.588ZM587.9 59.25H591.806V73.026C591.806 73.726 591.946 74.188 592.226 74.412C592.506 74.608 593.108 74.706 594.032 74.706C594.228 74.706 594.592 74.706 595.124 74.706C595.656 74.706 596.244 74.706 596.888 74.706C597.56 74.706 598.176 74.706 598.736 74.706C599.296 74.706 599.716 74.706 599.996 74.706C600.556 74.706 600.976 74.594 601.256 74.37C601.536 74.118 601.732 73.628 601.844 72.9C601.956 72.172 602.04 71.108 602.096 69.708C602.544 69.988 603.104 70.268 603.776 70.548C604.476 70.828 605.092 71.024 605.624 71.136C605.484 72.984 605.232 74.412 604.868 75.42C604.532 76.456 604 77.17 603.272 77.562C602.572 77.982 601.606 78.192 600.374 78.192C600.178 78.192 599.842 78.192 599.366 78.192C598.918 78.192 598.4 78.192 597.812 78.192C597.224 78.192 596.636 78.192 596.048 78.192C595.46 78.192 594.928 78.192 594.452 78.192C594.004 78.192 593.696 78.192 593.528 78.192C592.044 78.192 590.882 78.038 590.042 77.73C589.23 77.422 588.67 76.89 588.362 76.134C588.054 75.406 587.9 74.37 587.9 73.026V59.25ZM578.576 43.794L581.852 42.618C582.496 43.598 583.154 44.676 583.826 45.852C584.498 47 585.128 48.12 585.716 49.212C586.304 50.304 586.78 51.284 587.144 52.152L583.7 53.622C583.392 52.754 582.958 51.76 582.398 50.64C581.838 49.492 581.222 48.33 580.55 47.154C579.878 45.95 579.22 44.83 578.576 43.794ZM590.294 45.054H602.768V48.498H590.294V45.054ZM590.294 63.912H603.146V67.44H590.294V63.912ZM568.664 52.488C568.58 52.236 568.468 51.886 568.328 51.438C568.188 50.99 568.034 50.528 567.866 50.052C567.698 49.576 567.544 49.184 567.404 48.876C567.74 48.792 568.09 48.596 568.454 48.288C568.818 47.98 569.21 47.602 569.63 47.154C569.938 46.846 570.386 46.314 570.974 45.558C571.59 44.774 572.248 43.864 572.948 42.828C573.676 41.764 574.306 40.672 574.838 39.552L578.87 40.77C578.142 42.002 577.33 43.22 576.434 44.424C575.538 45.6 574.614 46.72 573.662 47.784C572.738 48.82 571.842 49.73 570.974 50.514V50.598C570.974 50.598 570.848 50.668 570.596 50.808C570.372 50.92 570.106 51.074 569.798 51.27C569.49 51.466 569.224 51.676 569 51.9C568.776 52.124 568.664 52.32 568.664 52.488ZM568.664 52.488L568.538 49.59L570.512 48.414L583.616 47.448C583.7 47.952 583.812 48.512 583.952 49.128C584.092 49.716 584.232 50.22 584.372 50.64C581.152 50.92 578.562 51.158 576.602 51.354C574.67 51.55 573.172 51.718 572.108 51.858C571.044 51.97 570.274 52.082 569.798 52.194C569.322 52.278 568.944 52.376 568.664 52.488ZM569.084 54.588H572.78V64.584C572.78 66.012 572.696 67.58 572.528 69.288C572.36 70.968 572.024 72.634 571.52 74.286C571.044 75.91 570.302 77.366 569.294 78.654C569.126 78.374 568.874 78.052 568.538 77.688C568.202 77.352 567.852 77.016 567.488 76.68C567.124 76.344 566.802 76.092 566.522 75.924C567.306 74.832 567.88 73.642 568.244 72.354C568.608 71.038 568.832 69.708 568.916 68.364C569.028 66.992 569.084 65.704 569.084 64.5V54.588ZM572.108 70.086C573.34 69.526 574.796 68.826 576.476 67.986C578.184 67.146 579.92 66.264 581.684 65.34L582.482 67.818C580.914 68.798 579.346 69.778 577.778 70.758C576.238 71.738 574.782 72.648 573.41 73.488L572.108 70.086ZM572.78 61.686L574.838 59.796C575.51 60.216 576.224 60.692 576.98 61.224C577.736 61.756 578.464 62.274 579.164 62.778C579.864 63.254 580.424 63.688 580.844 64.08L578.744 66.222C578.296 65.802 577.736 65.326 577.064 64.794C576.392 64.262 575.678 63.73 574.922 63.198C574.166 62.638 573.452 62.134 572.78 61.686ZM587.9 39.594H591.806V52.404C591.806 53.188 591.918 53.734 592.142 54.042C592.366 54.35 592.814 54.504 593.486 54.504C593.766 54.504 594.228 54.504 594.872 54.504C595.516 54.504 596.216 54.504 596.972 54.504C597.728 54.504 598.442 54.504 599.114 54.504C599.786 54.504 600.262 54.504 600.542 54.504C601.102 54.504 601.746 54.476 602.474 54.42C603.23 54.364 603.818 54.294 604.238 54.21C604.294 54.742 604.35 55.33 604.406 55.974C604.462 56.618 604.532 57.164 604.616 57.612C604.224 57.724 603.65 57.808 602.894 57.864C602.166 57.892 601.424 57.906 600.668 57.906C600.416 57.906 600.024 57.906 599.492 57.906C598.988 57.906 598.428 57.906 597.812 57.906C597.196 57.906 596.58 57.906 595.964 57.906C595.376 57.906 594.844 57.906 594.368 57.906C593.892 57.906 593.556 57.906 593.36 57.906C591.932 57.906 590.826 57.724 590.042 57.36C589.258 56.996 588.698 56.408 588.362 55.596C588.054 54.784 587.9 53.692 587.9 52.32V39.594ZM297.722 108.11H306.332V111.218H297.722V108.11ZM294.572 120.332H308.768V123.104H294.572V120.332ZM280.67 97.19H292.346V100.34H280.67V97.19ZM291.254 97.19H291.926L292.598 97.022L295.076 98.24C294.04 100.648 292.64 102.776 290.876 104.624C289.112 106.472 287.138 108.068 284.954 109.412C282.77 110.728 280.516 111.806 278.192 112.646C277.94 112.198 277.604 111.68 277.184 111.092C276.792 110.504 276.414 110.042 276.05 109.706C277.646 109.23 279.214 108.614 280.754 107.858C282.294 107.074 283.75 106.178 285.122 105.17C286.494 104.134 287.712 103 288.776 101.768C289.84 100.508 290.666 99.192 291.254 97.82V97.19ZM298.898 95.678C299.878 97.806 301.194 99.752 302.846 101.516C304.498 103.28 306.416 104.82 308.6 106.136C310.784 107.424 313.164 108.404 315.74 109.076C315.348 109.44 314.914 109.93 314.438 110.546C313.99 111.162 313.626 111.708 313.346 112.184C310.658 111.344 308.18 110.182 305.912 108.698C303.672 107.214 301.684 105.464 299.948 103.448C298.24 101.404 296.826 99.136 295.706 96.644L298.898 95.678ZM306.458 95.804L309.398 97.862C308.39 98.758 307.312 99.654 306.164 100.55C305.016 101.446 303.966 102.216 303.014 102.86L300.704 101.054C301.32 100.606 301.978 100.074 302.678 99.458C303.406 98.842 304.106 98.226 304.778 97.61C305.45 96.966 306.01 96.364 306.458 95.804ZM311.666 100.046L314.564 102.062C313.584 102.986 312.506 103.896 311.33 104.792C310.154 105.66 309.062 106.402 308.054 107.018L305.66 105.212C306.304 104.764 306.99 104.246 307.718 103.658C308.474 103.042 309.202 102.426 309.902 101.81C310.602 101.166 311.19 100.578 311.666 100.046ZM282.476 108.32H292.682V118.19H289.154V111.386H282.476V108.32ZM281.174 115.166H284.408C284.212 116.79 283.974 118.498 283.694 120.29C283.442 122.082 283.19 123.608 282.938 124.868H279.62C279.816 124 279.998 123.02 280.166 121.928C280.362 120.808 280.544 119.66 280.712 118.484C280.908 117.308 281.062 116.202 281.174 115.166ZM289.112 121.928H292.724C292.724 121.928 292.71 122.11 292.682 122.474C292.682 122.838 292.668 123.132 292.64 123.356C292.5 125.288 292.332 126.898 292.136 128.186C291.94 129.446 291.716 130.44 291.464 131.168C291.24 131.924 290.946 132.484 290.582 132.848C290.162 133.24 289.714 133.52 289.238 133.688C288.79 133.884 288.216 133.996 287.516 134.024C286.956 134.08 286.172 134.108 285.164 134.108C284.156 134.108 283.078 134.08 281.93 134.024C281.902 133.492 281.776 132.904 281.552 132.26C281.356 131.644 281.104 131.098 280.796 130.622C281.888 130.734 282.924 130.804 283.904 130.832C284.912 130.86 285.626 130.874 286.046 130.874C286.41 130.874 286.718 130.86 286.97 130.832C287.222 130.776 287.432 130.664 287.6 130.496C287.936 130.188 288.23 129.418 288.482 128.186C288.734 126.954 288.944 125.022 289.112 122.39V121.928ZM296.252 108.11H299.612V111.344C299.612 112.324 299.486 113.332 299.234 114.368C298.982 115.376 298.52 116.356 297.848 117.308C297.204 118.232 296.252 119.072 294.992 119.828C294.852 119.604 294.614 119.338 294.278 119.03C293.97 118.694 293.648 118.372 293.312 118.064C293.004 117.756 292.724 117.518 292.472 117.35C293.592 116.734 294.418 116.09 294.95 115.418C295.482 114.746 295.832 114.06 296 113.36C296.168 112.632 296.252 111.932 296.252 111.26V108.11ZM307.928 120.332H308.642L309.272 120.248L311.498 121.046C310.546 123.594 309.216 125.764 307.508 127.556C305.8 129.32 303.812 130.762 301.544 131.882C299.276 133.03 296.812 133.926 294.152 134.57C293.984 134.15 293.732 133.646 293.396 133.058C293.088 132.47 292.766 132.008 292.43 131.672C294.782 131.196 296.994 130.496 299.066 129.572C301.138 128.62 302.944 127.416 304.484 125.96C306.052 124.504 307.2 122.796 307.928 120.836V120.332ZM282.602 115.166H290.414V118.19H282.056L282.602 115.166ZM281.384 121.928H290.12V124.868H280.838L281.384 121.928ZM279.41 102.902L281.678 100.76C282.602 101.264 283.582 101.88 284.618 102.608C285.654 103.308 286.452 103.938 287.012 104.498L284.618 106.85C284.086 106.262 283.316 105.604 282.308 104.876C281.328 104.12 280.362 103.462 279.41 102.902ZM304.568 108.152H307.844V114.62C307.844 115.124 307.886 115.474 307.97 115.67C308.054 115.838 308.236 115.922 308.516 115.922C308.684 115.922 308.95 115.922 309.314 115.922C309.678 115.922 310.042 115.922 310.406 115.922C310.77 115.922 311.036 115.922 311.204 115.922C311.484 115.922 311.834 115.908 312.254 115.88C312.674 115.852 313.01 115.81 313.262 115.754C313.29 116.146 313.318 116.608 313.346 117.14C313.402 117.644 313.458 118.092 313.514 118.484C313.262 118.568 312.926 118.624 312.506 118.652C312.086 118.68 311.666 118.694 311.246 118.694C311.106 118.694 310.882 118.694 310.574 118.694C310.294 118.694 309.986 118.694 309.65 118.694C309.342 118.694 309.048 118.694 308.768 118.694C308.488 118.694 308.278 118.694 308.138 118.694C307.158 118.694 306.402 118.554 305.87 118.274C305.366 117.994 305.016 117.56 304.82 116.972C304.652 116.356 304.568 115.558 304.568 114.578V108.152ZM294.278 125.162L296.168 122.936C297.428 123.608 298.772 124.336 300.2 125.12C301.628 125.904 303.056 126.716 304.484 127.556C305.912 128.368 307.256 129.166 308.516 129.95C309.776 130.706 310.854 131.392 311.75 132.008L309.692 134.612C308.852 133.996 307.816 133.282 306.584 132.47C305.352 131.686 304.022 130.874 302.594 130.034C301.194 129.166 299.766 128.326 298.31 127.514C296.882 126.674 295.538 125.89 294.278 125.162ZM334.178 111.596H361.562V114.956H334.178V111.596ZM333.128 118.694H363.326V122.096H333.128V118.694ZM340.058 107.942H343.712V120.458H340.058V107.942ZM351.188 107.942H354.926V120.374H351.188V107.942ZM329.012 97.484H333.002V109.874C333.002 111.666 332.946 113.64 332.834 115.796C332.722 117.924 332.498 120.108 332.162 122.348C331.826 124.588 331.322 126.758 330.65 128.858C329.978 130.958 329.082 132.876 327.962 134.612C327.71 134.388 327.36 134.136 326.912 133.856C326.492 133.604 326.058 133.352 325.61 133.1C325.162 132.876 324.77 132.694 324.434 132.554C325.498 130.93 326.324 129.152 326.912 127.22C327.528 125.288 327.976 123.314 328.256 121.298C328.564 119.254 328.76 117.266 328.844 115.334C328.956 113.374 329.012 111.554 329.012 109.874V97.484ZM331.406 97.484H360.932V107.9H331.406V104.498H356.942V100.886H331.406V97.484ZM348.836 119.996C350.012 122.908 351.86 125.33 354.38 127.262C356.928 129.166 360.078 130.496 363.83 131.252C363.41 131.644 362.976 132.162 362.528 132.806C362.08 133.45 361.716 134.024 361.436 134.528C357.46 133.548 354.156 131.896 351.524 129.572C348.92 127.248 346.932 124.308 345.56 120.752L348.836 119.996ZM358.454 121.97L361.436 124.07C360.288 124.91 359.028 125.736 357.656 126.548C356.284 127.332 355.038 128.004 353.918 128.564L351.356 126.632C352.112 126.24 352.924 125.778 353.792 125.246C354.66 124.714 355.5 124.168 356.312 123.608C357.124 123.02 357.838 122.474 358.454 121.97ZM336.656 134.654L336.53 131.672L338.084 130.412L349.172 128.102C349.088 128.606 349.018 129.18 348.962 129.824C348.906 130.468 348.892 130.986 348.92 131.378C346.428 131.966 344.412 132.442 342.872 132.806C341.36 133.198 340.184 133.492 339.344 133.688C338.532 133.912 337.93 134.094 337.538 134.234C337.174 134.374 336.88 134.514 336.656 134.654ZM336.656 134.654C336.6 134.346 336.474 133.982 336.278 133.562C336.11 133.17 335.928 132.764 335.732 132.344C335.536 131.952 335.34 131.644 335.144 131.42C335.564 131.168 336.012 130.762 336.488 130.202C336.992 129.614 337.244 128.83 337.244 127.85V120.248L340.94 120.374V130.58C340.94 130.58 340.8 130.678 340.52 130.874C340.24 131.042 339.876 131.28 339.428 131.588C339.008 131.896 338.588 132.232 338.168 132.596C337.748 132.96 337.384 133.324 337.076 133.688C336.796 134.052 336.656 134.374 336.656 134.654ZM398.312 117.56H409.358V120.626H398.312V117.56ZM388.274 99.92H407.132V103.154H388.274V99.92ZM384.284 117.56H395.162V120.626H384.284V117.56ZM373.112 106.43H386.51V110.042H373.112V106.43ZM378.026 95.552H381.848V134.528H378.026V95.552ZM394.07 117.56H397.304C397.304 117.56 397.304 117.742 397.304 118.106C397.304 118.442 397.29 118.722 397.262 118.946C397.178 122.138 397.08 124.714 396.968 126.674C396.856 128.606 396.702 130.076 396.506 131.084C396.338 132.092 396.114 132.792 395.834 133.184C395.526 133.604 395.204 133.898 394.868 134.066C394.532 134.262 394.126 134.374 393.65 134.402C393.258 134.486 392.782 134.528 392.222 134.528C391.662 134.528 391.046 134.528 390.374 134.528C390.374 134.052 390.304 133.506 390.164 132.89C390.024 132.302 389.828 131.798 389.576 131.378C390.136 131.434 390.626 131.462 391.046 131.462C391.466 131.49 391.802 131.504 392.054 131.504C392.278 131.504 392.46 131.476 392.6 131.42C392.768 131.364 392.908 131.238 393.02 131.042C393.216 130.79 393.37 130.23 393.482 129.362C393.622 128.494 393.734 127.164 393.818 125.372C393.93 123.552 394.014 121.144 394.07 118.148V117.56ZM408.224 117.56H411.542C411.542 117.56 411.542 117.742 411.542 118.106C411.542 118.442 411.542 118.736 411.542 118.988C411.458 122.152 411.346 124.714 411.206 126.674C411.094 128.606 410.954 130.076 410.786 131.084C410.618 132.092 410.38 132.792 410.072 133.184C409.792 133.576 409.47 133.856 409.106 134.024C408.742 134.22 408.322 134.346 407.846 134.402C407.454 134.486 406.95 134.528 406.334 134.528C405.718 134.528 405.06 134.528 404.36 134.528C404.332 134.024 404.234 133.464 404.066 132.848C403.926 132.232 403.744 131.714 403.52 131.294C404.108 131.35 404.626 131.378 405.074 131.378C405.55 131.406 405.914 131.42 406.166 131.42C406.418 131.42 406.614 131.378 406.754 131.294C406.922 131.238 407.076 131.126 407.216 130.958C407.384 130.706 407.524 130.146 407.636 129.278C407.776 128.41 407.888 127.08 407.972 125.288C408.056 123.496 408.14 121.116 408.224 118.148V117.56ZM406.418 99.92H410.072C410.072 99.92 410.058 100.102 410.03 100.466C410.002 100.83 409.974 101.138 409.946 101.39C409.778 103.434 409.596 105.128 409.4 106.472C409.204 107.788 408.98 108.824 408.728 109.58C408.504 110.308 408.21 110.868 407.846 111.26C407.482 111.652 407.076 111.932 406.628 112.1C406.208 112.268 405.704 112.366 405.116 112.394C404.668 112.45 404.024 112.492 403.184 112.52C402.372 112.52 401.504 112.492 400.58 112.436C400.552 111.904 400.44 111.33 400.244 110.714C400.076 110.098 399.838 109.552 399.53 109.076C400.398 109.16 401.196 109.216 401.924 109.244C402.68 109.272 403.212 109.286 403.52 109.286C403.856 109.286 404.122 109.272 404.318 109.244C404.514 109.188 404.696 109.076 404.864 108.908C405.2 108.572 405.494 107.774 405.746 106.514C405.998 105.254 406.222 103.224 406.418 100.424V99.92ZM396.548 95.552H400.286C400.118 97.708 399.824 99.696 399.404 101.516C398.984 103.308 398.34 104.946 397.472 106.43C396.632 107.886 395.484 109.188 394.028 110.336C392.572 111.456 390.738 112.436 388.526 113.276C388.358 112.856 388.064 112.38 387.644 111.848C387.252 111.288 386.874 110.84 386.51 110.504C388.526 109.804 390.164 108.992 391.424 108.068C392.684 107.116 393.664 106.024 394.364 104.792C395.092 103.532 395.61 102.132 395.918 100.592C396.226 99.052 396.436 97.372 396.548 95.552ZM388.316 113.402H391.718C391.662 116.51 391.452 119.394 391.088 122.054C390.724 124.686 390.08 127.066 389.156 129.194C388.26 131.294 386.958 133.114 385.25 134.654C385.026 134.262 384.704 133.814 384.284 133.31C383.864 132.834 383.458 132.456 383.066 132.176C384.55 130.86 385.656 129.278 386.384 127.43C387.14 125.554 387.63 123.44 387.854 121.088C388.106 118.736 388.26 116.174 388.316 113.402ZM402.176 113.276H405.662C405.578 116.44 405.34 119.352 404.948 122.012C404.584 124.644 403.926 127.01 402.974 129.11C402.05 131.182 400.692 132.974 398.9 134.486C398.676 134.066 398.34 133.604 397.892 133.1C397.472 132.624 397.066 132.246 396.674 131.966C398.242 130.678 399.404 129.124 400.16 127.304C400.916 125.484 401.42 123.398 401.672 121.046C401.952 118.666 402.12 116.076 402.176 113.276ZM429.896 110.21V116.09H451.736V110.21H429.896ZM426.536 107.648H455.264V118.652H426.536V107.648ZM433.55 103.112H448.334V105.8H433.55V103.112ZM439.094 108.53H442.37V117.35H439.094V108.53ZM431.996 111.344L434.768 110.462C435.244 111.19 435.678 111.988 436.07 112.856C436.49 113.724 436.77 114.48 436.91 115.124L433.97 116.132C433.83 115.46 433.578 114.676 433.214 113.78C432.85 112.884 432.444 112.072 431.996 111.344ZM446.57 110.294L449.93 111.218C449.454 112.114 448.978 113.01 448.502 113.906C448.054 114.774 447.634 115.516 447.242 116.132L444.512 115.25C444.848 114.578 445.226 113.766 445.646 112.814C446.066 111.862 446.374 111.022 446.57 110.294ZM428.972 120.374H453.206V134.36H449.132V123.062H432.878V134.528H428.972V120.374ZM431.24 125.414H450.812V128.102H431.24V125.414ZM431.24 130.496H450.854V133.226H431.24V130.496ZM440.354 95.3L443.882 96.56C442.37 98.52 440.522 100.284 438.338 101.852C436.154 103.42 433.788 104.806 431.24 106.01C428.692 107.186 426.088 108.18 423.428 108.992C423.288 108.74 423.092 108.418 422.84 108.026C422.588 107.634 422.322 107.242 422.042 106.85C421.762 106.458 421.496 106.15 421.244 105.926C423.82 105.254 426.326 104.414 428.762 103.406C431.198 102.37 433.41 101.18 435.398 99.836C437.414 98.464 439.066 96.952 440.354 95.3ZM442.832 96.938C443.784 97.89 444.932 98.814 446.276 99.71C447.648 100.578 449.132 101.39 450.728 102.146C452.352 102.902 454.032 103.574 455.768 104.162C457.532 104.75 459.268 105.24 460.976 105.632C460.556 105.968 460.094 106.444 459.59 107.06C459.114 107.676 458.736 108.222 458.456 108.698C456.748 108.222 455.012 107.634 453.248 106.934C451.484 106.206 449.776 105.394 448.124 104.498C446.5 103.574 444.974 102.58 443.546 101.516C442.146 100.452 440.9 99.346 439.808 98.198L442.832 96.938Z" fill="#565656"/>
<path d="M19.0876 126.2H212.976V131.825H19.0876V126.2Z" fill="#1A1A1A"/>
<path d="M89.594 129.012H83.9692V90.8961L75.5068 69.5164L80.4369 42.4979L59.5437 22.8562L63.3938 18.7586L86.52 40.4955L81.3284 68.9427L89.594 89.8218V129.012Z" fill="#1A1A1A"/>
<path d="M81.6855 39.3171L97.089 26.5517L100.68 30.8828L85.2741 43.6482L81.6855 39.3171Z" fill="#1A1A1A"/>
<path d="M24.6561 66.7462L25.2074 61.1496L78.6932 66.4312L78.1391 72.0279L24.6561 66.7462Z" fill="#1A1A1A"/>
<path d="M84.765 88.3903L108.755 63.737L112.788 67.6603L88.7952 92.3136L84.765 88.3903Z" fill="#1A1A1A"/>
<path d="M63.1857 97.8905L65.9137 92.9717L88.1427 105.298L85.4147 110.22L63.1857 97.8905Z" fill="#1A1A1A"/>
<path d="M46.7472 54.847L51.5451 51.9137L59.9822 65.7028L55.1843 68.6389L46.7472 54.847Z" fill="#1A1A1A"/>
<path d="M148.336 129.012H142.711V89.8218L150.977 68.9427L145.783 40.4955L168.909 18.7586L172.762 22.8562L151.866 42.4979L156.799 69.5164L148.336 90.8961V129.012Z" fill="#1A1A1A"/>
<path d="M131.619 30.8828L135.208 26.5517L150.614 39.3143L147.025 43.6482L131.619 30.8828Z" fill="#1A1A1A"/>
<path d="M153.615 66.4228L207.098 61.1412L207.652 66.7378L154.166 72.0195L153.615 66.4228Z" fill="#1A1A1A"/>
<path d="M119.521 67.6771L123.551 63.7567L147.54 88.4071L143.51 92.3304L119.521 67.6771Z" fill="#1A1A1A"/>
<path d="M144.165 105.267L166.394 92.9408L169.122 97.8596L146.893 110.186L144.165 105.267Z" fill="#1A1A1A"/>
<path d="M172.331 65.7113L180.769 51.9222L185.566 54.8583L177.129 68.6474L172.331 65.7113Z" fill="#1A1A1A"/>
<path d="M52.2793 99.3276C52.2793 99.3276 41.8791 93.8237 35.5513 103.181C35.5513 103.181 45.3468 108.738 52.2793 99.3276Z" fill="#3AAA54"/>
<path d="M56.4697 85.9154C56.4697 85.9154 48.3279 77.4221 39.3789 84.3096C39.3789 84.3096 46.9273 92.6652 56.4697 85.9154Z" fill="#ADE13E"/>
<path d="M36.0013 77.1633C36.0013 77.1633 24.4059 75.1721 21.3038 86.0307C21.3038 86.0307 32.3424 88.2637 36.0013 77.1633Z" fill="#3AAA54"/>
<path d="M21.242 66.9881C21.242 66.9881 9.8715 63.9676 5.81042 74.5056C5.81042 74.5056 16.6043 77.7173 21.242 66.9881Z" fill="#3AAA54"/>
<path d="M16.0671 51.5397C16.0671 51.5397 10.4452 41.2042 0 45.4987C0 45.4987 5.08759 55.5445 16.0671 51.5397Z" fill="#3AAA54"/>
<path d="M34.2548 49.6526C34.2548 49.6526 29.0435 39.1034 18.438 42.9873C18.438 42.9873 23.1262 53.2243 34.2548 49.6526Z" fill="#3AAA54"/>
<path d="M44.2276 40.3127C44.2276 40.3127 44.7591 28.5597 33.5996 26.8358C33.5996 26.8358 32.7587 38.0656 44.2276 40.3127Z" fill="#3AAA54"/>
<path d="M68.2228 53.7896C68.2228 53.7896 68.7543 42.0367 57.5948 40.3127C57.5948 40.3127 56.7539 51.5425 68.2228 53.7896Z" fill="#3AAA54"/>
<path d="M56.945 14.3234C56.945 14.3234 58.4608 2.65489 47.4841 0C47.4841 0 45.7039 11.1201 56.945 14.3234Z" fill="#ADE13E"/>
<path d="M76.3478 18.2721C76.3478 18.2721 82.4647 8.22063 73.5045 1.34436C73.5045 1.34436 67.3707 10.7883 76.3478 18.2721Z" fill="#3AAA54"/>
<path d="M86.3738 30.1571C86.3738 30.1571 96.2424 23.7505 91.152 13.671C91.152 13.671 81.5308 19.5207 86.3738 30.1571Z" fill="#ADE13E"/>
<path d="M106.587 35.1126C106.587 35.1126 118.28 33.8076 118.247 22.5159C118.247 22.5159 107.022 23.4356 106.587 35.1126Z" fill="#3AAA54"/>
<path d="M95.2582 59.2175C95.2582 59.2175 107.017 58.8125 107.846 47.549C107.846 47.549 96.5856 47.6052 95.2582 59.2175Z" fill="#3AAA54"/>
<path d="M136.788 59.4818C136.788 59.4818 135.995 47.743 124.712 47.2817C124.712 47.2817 125.14 58.5341 136.788 59.4818Z" fill="#ADE13E"/>
<path d="M126.501 14.9422C126.501 14.9422 125.142 3.254 113.851 3.34118C113.851 3.34118 114.821 14.5598 126.501 14.9422Z" fill="#3AAA54"/>
<path d="M146.815 28.5204C146.815 28.5204 149.827 17.1471 139.286 13.0945C139.286 13.0945 136.083 23.8912 146.815 28.5204Z" fill="#3AAA54"/>
<path d="M156.351 18.2805C156.351 18.2805 165.365 10.718 159.085 1.33307C159.085 1.33307 150.249 8.31339 156.351 18.2805Z" fill="#3AAA54"/>
<path d="M175.464 14.5035C175.464 14.5035 186.776 11.2636 184.855 0.13501C184.855 0.13501 173.943 2.91645 175.464 14.5035Z" fill="#3AAA54"/>
<path d="M165.115 53.9021C165.115 53.9021 176.426 50.6622 174.505 39.5336C174.505 39.5336 163.593 42.3151 165.115 53.9021Z" fill="#3AAA54"/>
<path d="M189.152 41.0552C189.152 41.0552 200.464 37.8153 198.543 26.6867C198.543 26.6867 187.631 29.4681 189.152 41.0552Z" fill="#ADE13E"/>
<path d="M198.683 50.2769C198.683 50.2769 210.273 52.3103 213.412 41.4629C213.412 41.4629 202.382 39.1905 198.683 50.2769Z" fill="#3AAA54"/>
<path d="M216.947 51.3316C216.947 51.3316 227.994 55.3758 233 45.254C233 45.254 222.544 41.072 216.947 51.3316Z" fill="#ADE13E"/>
<path d="M211.114 67.3425C211.114 67.3425 216.323 77.8917 226.928 74.0162C226.928 74.0162 222.243 63.7764 211.114 67.3425Z" fill="#3AAA54"/>
<path d="M196.566 77.2673C196.566 77.2673 200.568 88.3312 211.539 85.6594C211.539 85.6594 208.023 74.9611 196.566 77.2673Z" fill="#ADE13E"/>
<path d="M174.59 85.4486C174.59 85.4486 183.921 92.6145 191.726 84.4502C191.726 84.4502 182.999 77.3321 174.59 85.4486Z" fill="#3AAA54"/>
<path d="M179.731 99.1673C179.731 99.1673 186.88 108.513 196.537 102.657C196.537 102.657 189.962 93.5144 179.731 99.1673Z" fill="#ADE13E"/>
<path d="M127.39 88.5506C119.796 85.6426 115.176 96.4112 115.176 96.4112C115.176 96.4112 112.535 88.8177 105.931 89.1468C99.3277 89.4758 98.7793 102.354 103.29 107.745C107.801 113.136 118.247 121.281 118.247 121.281C118.247 121.281 121.779 114.568 126.4 107.745C131.02 100.922 134.983 91.4586 127.39 88.5506ZM120.013 105.647L117.116 106.018L117.274 114.115C117.282 114.582 116.914 114.967 116.447 114.976C116.441 114.976 116.435 114.976 116.43 114.976C115.971 114.976 115.595 114.61 115.586 114.149L115.431 106.235L112.523 106.606C112.486 106.612 112.45 106.614 112.417 106.612C111.998 106.612 111.635 106.3 111.581 105.875C111.522 105.414 111.848 104.989 112.313 104.93L115.4 104.536L115.319 100.391C115.311 99.9238 115.679 99.5386 116.146 99.5301C116.151 99.5301 116.157 99.5301 116.163 99.5301C116.621 99.5301 116.998 99.8957 117.006 100.357L117.082 104.32L119.799 103.974C120.26 103.915 120.685 104.241 120.744 104.705C120.803 105.166 120.477 105.591 120.013 105.65V105.647Z" fill="#FF6D8C"/>
<path d="M120.013 105.647L117.116 106.018L117.274 114.115C117.282 114.582 116.914 114.967 116.447 114.976H116.43C115.971 114.976 115.595 114.61 115.586 114.149L115.431 106.235L112.523 106.606C112.486 106.612 112.45 106.614 112.417 106.612C111.998 106.612 111.635 106.3 111.581 105.875C111.522 105.414 111.848 104.989 112.313 104.93L115.4 104.536L115.319 100.391C115.311 99.9238 115.679 99.5386 116.146 99.5301H116.163C116.621 99.5301 116.998 99.8957 117.006 100.357L117.082 104.32L119.799 103.974C120.26 103.915 120.685 104.241 120.744 104.705C120.803 105.166 120.477 105.591 120.013 105.65V105.647Z" fill="white"/>
<path d="M63.7819 153.795C63.1557 152.648 62.2942 151.773 61.1973 151.171C60.1005 150.571 58.8209 150.271 57.3584 150.271C55.7404 150.271 54.3042 150.637 53.0499 151.368C51.7956 152.099 50.8169 153.144 50.1138 154.501C49.4088 155.859 49.0563 157.425 49.0563 159.201C49.0563 160.975 49.4135 162.621 50.1334 163.979C50.8515 165.336 51.8499 166.381 53.1286 167.112C54.4073 167.843 55.8951 168.209 57.5919 168.209C59.6805 168.209 61.3905 167.654 62.7217 166.544C64.051 165.436 64.9256 163.889 65.3456 161.903H55.9466V157.713H70.751V162.491C70.3854 164.396 69.6026 166.159 68.4027 167.778C67.2027 169.397 65.6559 170.695 63.7622 171.674C61.8704 172.652 59.749 173.142 57.3978 173.142C54.7598 173.142 52.3777 172.547 50.2516 171.359C48.1217 170.172 46.4511 168.52 45.2399 166.403C44.025 164.288 43.4175 161.887 43.4175 159.198C43.4175 156.509 44.025 154.101 45.2399 151.973C46.4548 149.845 48.1254 148.187 50.2516 147.001C52.3777 145.812 54.7467 145.218 57.3584 145.218C60.4389 145.218 63.1154 145.968 65.3878 147.47C67.6602 148.97 69.2267 151.079 70.0873 153.795H63.7819Z" fill="#1A1A1A"/>
<path d="M80.3074 149.998V156.852H89.5095V161.2H80.3074V168.445H90.6851V172.908H74.8232V145.535H90.6851V149.998H80.3074Z" fill="#1A1A1A"/>
<path d="M99.9464 172.202C98.4184 171.55 97.2109 170.609 96.3241 169.381C95.4354 168.155 94.9788 166.706 94.9545 165.033H100.83C100.906 166.156 101.305 167.044 102.025 167.697C102.743 168.349 103.728 168.675 104.981 168.675C106.232 168.675 107.264 168.369 107.995 167.756C108.727 167.141 109.092 166.338 109.092 165.348C109.092 164.54 108.844 163.875 108.347 163.351C107.85 162.828 107.23 162.417 106.488 162.117C105.744 161.817 104.719 161.484 103.414 161.118C101.639 160.595 100.196 160.08 99.0859 159.572C97.9759 159.064 97.0225 158.293 96.2257 157.26C95.4288 156.229 95.0304 154.851 95.0304 153.128C95.0304 151.51 95.4354 150.1 96.2453 148.899C97.0553 147.699 98.1906 146.778 99.6511 146.137C101.114 145.498 102.784 145.178 104.663 145.178C107.483 145.178 109.774 145.863 111.536 147.234C113.299 148.602 114.271 150.515 114.453 152.971H108.423C108.37 152.032 107.972 151.254 107.228 150.639C106.483 150.026 105.498 149.72 104.272 149.72C103.199 149.72 102.344 149.994 101.707 150.541C101.068 151.09 100.748 151.886 100.748 152.929C100.748 153.66 100.99 154.267 101.474 154.748C101.955 155.232 102.556 155.624 103.276 155.924C103.994 156.224 105.006 156.57 106.311 156.962C108.085 157.485 109.534 158.007 110.659 158.528C111.782 159.051 112.747 159.834 113.556 160.877C114.366 161.921 114.77 163.291 114.77 164.988C114.77 166.451 114.392 167.808 113.634 169.061C112.877 170.315 111.767 171.313 110.304 172.056C108.842 172.8 107.106 173.172 105.096 173.172C103.189 173.172 101.473 172.846 99.9464 172.194V172.202Z" fill="#1A1A1A"/>
<path d="M136.386 145.572V149.998H124.991V157.007H133.723V161.355H124.991V172.908H119.506V145.574H136.384L136.386 145.572Z" fill="#1A1A1A"/>
<path d="M159.158 158.143C158.466 159.423 157.383 160.455 155.907 161.236C154.431 162.02 152.571 162.412 150.327 162.412H145.746V172.908H140.265V145.574H150.33C152.443 145.574 154.245 145.94 155.735 146.671C157.222 147.402 158.339 148.407 159.085 149.686C159.829 150.965 160.201 152.414 160.201 154.034C160.201 155.496 159.856 156.867 159.164 158.146L159.158 158.143ZM153.46 156.948C154.191 156.256 154.557 155.284 154.557 154.031C154.557 151.369 153.069 150.038 150.094 150.038H145.746V157.988H150.094C151.609 157.988 152.732 157.642 153.463 156.95L153.46 156.948Z" fill="#1A1A1A"/>
<path d="M164.561 151.975C165.776 149.847 167.433 148.19 169.533 147.003C171.635 145.816 173.991 145.222 176.6 145.22C179.655 145.222 182.331 146.005 184.63 147.568C186.928 149.136 188.534 151.303 189.447 154.071H183.142C182.516 152.766 181.635 151.787 180.498 151.134C179.362 150.482 178.05 150.156 176.561 150.156C174.969 150.156 173.553 150.528 172.312 151.272C171.07 152.017 170.105 153.067 169.415 154.425C168.723 155.782 168.377 157.375 168.377 159.203C168.377 161.031 168.723 162.589 169.415 163.962C170.107 165.332 171.072 166.39 172.312 167.134C173.551 167.878 174.967 168.251 176.561 168.251C178.05 168.251 179.362 167.918 180.498 167.252C181.635 166.587 182.516 165.601 183.142 164.296H189.447C188.532 167.09 186.933 169.263 184.65 170.815C182.366 172.368 179.683 173.145 176.6 173.147C173.991 173.147 171.635 172.553 169.533 171.364C167.431 170.175 165.774 168.523 164.561 166.408C163.346 164.294 162.739 161.892 162.741 159.203C162.741 156.514 163.348 154.105 164.561 151.975Z" fill="#1A1A1A"/>
</svg>
